<?xml version="1.0" standalone="no"?>
<!DOCTYPE svg PUBLIC "-//W3C//DTD SVG 20010904//EN"
 "http://www.w3.org/TR/2001/REC-SVG-20010904/DTD/svg10.dtd">
<svg version="1.0" xmlns="http://www.w3.org/2000/svg"
 width="375.000000pt" height="375.000000pt" viewBox="0 0 375.000000 375.000000"
 preserveAspectRatio="xMidYMid meet">

<g transform="translate(0.000000,375.000000) scale(0.100000,-0.100000)"
fill="#000000" stroke="none">
<path d="M0 1875 l0 -1875 1875 0 1875 0 0 1875 0 1875 -1875 0 -1875 0 0
-1875z m1762 929 l-33 -27 24 -26 c13 -14 33 -43 45 -63 l21 -38 -30 0 c-17 0
-28 4 -24 10 7 12 -17 59 -42 82 -29 27 -46 8 -42 -46 4 -41 2 -46 -17 -46
-17 0 -20 5 -17 28 3 15 0 53 -5 85 -9 56 -8 57 15 57 19 0 23 -5 23 -32 l0
-32 33 31 c27 26 42 34 77 42 3 0 -10 -11 -28 -25z m167 -24 c13 -28 28 -50
32 -50 4 0 15 20 26 45 12 31 24 45 37 45 17 0 18 -2 4 -17 -9 -10 -26 -38
-38 -63 -30 -60 -59 -90 -87 -90 -27 0 -41 26 -24 43 8 8 11 7 11 -6 0 -21 38
-23 46 -3 3 8 -13 42 -35 76 -23 34 -41 63 -41 66 0 2 10 4 23 4 16 -1 28 -13
46 -50z m-375 24 c36 -14 1 -72 -55 -89 -22 -7 -27 -59 -7 -71 8 -5 6 -10 -8
-15 -36 -14 -39 -9 -41 58 -1 37 -4 77 -8 90 -5 20 -1 22 47 26 29 2 54 4 55
5 1 1 8 -1 17 -4z m780 -44 c-8 -35 0 -37 44 -10 18 11 42 20 55 19 18 0 15
-4 -13 -16 -45 -19 -44 -17 -25 -47 9 -14 23 -46 31 -72 12 -41 12 -45 -2 -40
-9 3 -20 6 -25 6 -5 0 -9 12 -9 28 0 37 -35 93 -54 86 -15 -6 -32 -76 -22 -92
3 -5 -8 -6 -25 -4 -20 3 -27 8 -21 16 12 14 33 136 26 147 -3 5 6 9 20 9 23 0
25 -3 20 -30z m-986 -25 c53 -62 3 -145 -88 -145 -42 0 -52 4 -74 31 -30 36
-32 49 -10 90 31 61 127 75 172 24z m1310 -46 l4 -24 -24 22 c-29 27 -73 35
-73 13 0 -9 11 -16 28 -18 30 -4 30 -4 21 -26 -5 -14 -8 -14 -21 -1 -24 25
-39 17 -52 -26 -10 -34 -10 -43 1 -50 18 -12 66 -11 89 2 20 10 20 10 4 -14
l-16 -25 -66 19 c-63 18 -88 29 -66 29 13 0 48 134 39 148 -3 5 25 2 62 -7 58
-15 67 -21 70 -42z m-1559 13 c8 -15 5 -17 -27 -14 -63 5 -68 -6 -42 -84 13
-38 22 -71 21 -74 -1 -3 -11 -8 -22 -12 -11 -4 -18 -4 -15 0 7 12 -33 140 -46
148 -7 5 15 17 53 30 35 12 65 23 66 23 1 1 7 -7 12 -17z m1690 -38 c3 -3 -1
-10 -7 -16 -19 -19 -14 -27 25 -43 40 -17 43 -16 46 13 1 17 5 18 29 10 23 -8
26 -12 15 -22 -22 -18 -57 -116 -51 -141 3 -13 1 -26 -5 -29 -6 -4 -11 0 -11
8 0 8 -7 19 -15 24 -14 7 -13 14 5 57 11 26 19 49 17 51 -2 2 -19 10 -39 18
l-36 15 -16 -39 c-9 -22 -16 -47 -16 -55 0 -12 -5 -12 -23 -4 l-23 10 29 60
c15 33 29 68 30 79 1 15 6 19 22 14 11 -4 22 -8 24 -10z m-1888 -73 c32 -33
36 -58 14 -100 -14 -28 -68 -61 -100 -61 -24 0 -72 27 -79 45 -13 36 -6 82 17
102 57 52 105 57 148 14z m2191 -103 l-5 -20 -11 21 c-18 33 -55 56 -69 41 -9
-9 -8 -15 7 -25 10 -8 23 -16 28 -17 5 -2 6 -11 3 -20 -6 -15 -10 -13 -30 10
l-23 26 -21 -34 c-11 -19 -21 -40 -21 -47 0 -19 39 -35 76 -31 32 4 33 3 17
-14 -21 -24 -24 -23 -85 14 -66 40 -64 38 -52 46 16 11 74 111 74 127 0 10 17
4 59 -21 48 -29 58 -39 53 -56z m-2492 -14 c-14 -37 -13 -44 13 -44 12 0 44
-10 70 -23 l49 -22 -21 -19 c-13 -11 -21 -14 -21 -7 0 14 -59 41 -90 41 -30 0
-25 -31 10 -65 27 -26 28 -29 12 -41 -14 -10 -20 -7 -41 22 -13 19 -33 34 -44
34 -18 0 -19 -5 -15 -51 3 -28 11 -54 17 -59 8 -5 5 -12 -12 -23 l-24 -16 -7
46 c-3 25 -6 59 -6 74 0 27 -3 29 -37 29 -34 1 -36 2 -18 12 11 7 37 11 58 9
39 -3 49 11 20 28 -14 8 -15 12 -4 25 16 20 31 21 31 2 0 -7 6 -19 14 -25 11
-9 15 -5 20 24 4 19 4 39 1 45 -4 7 18 28 32 30 1 0 -2 -12 -7 -26z m2619 -48
c9 -11 0 -25 -46 -69 l-58 -56 21 -21 20 -21 56 59 c49 51 59 57 71 45 12 -13
7 -21 -39 -65 -58 -54 -63 -68 -38 -89 14 -11 23 -6 71 45 49 50 58 55 70 43
13 -13 8 -21 -37 -63 -29 -27 -55 -57 -59 -67 -5 -14 -22 -2 -89 66 l-83 83
58 61 c32 33 61 61 64 62 4 0 12 -5 18 -13z m-1279 -87 c14 -11 37 -25 53 -32
23 -10 27 -17 27 -54 0 -38 -3 -43 -23 -43 -13 0 -37 15 -56 35 -18 19 -41 35
-52 35 -16 0 -19 7 -19 46 0 42 2 45 23 39 12 -4 33 -15 47 -26z m1500 -215
c0 -30 -37 -56 -61 -44 -26 15 -32 45 -14 80 l16 30 29 -22 c18 -13 30 -31 30
-44z m-3052 31 c16 -36 15 -49 -7 -69 -15 -14 -24 -15 -39 -7 -33 17 -37 49
-11 77 29 31 43 30 57 -1z m1497 -6 c10 -15 -1 -23 -20 -15 -9 3 -13 10 -10
16 8 13 22 13 30 -1z m-75 -29 l0 -30 65 0 65 0 0 30 0 30 565 0 c646 0 597 9
525 -94 -22 -31 -40 -63 -40 -71 0 -8 -7 -15 -15 -15 -9 0 -15 -9 -15 -24 0
-15 -10 -30 -27 -41 l-28 -18 23 25 c12 13 22 34 22 46 0 13 6 22 15 22 8 0
15 6 15 14 0 7 7 19 15 26 22 18 18 30 -8 30 -12 0 -28 -9 -35 -20 -7 -11 -17
-20 -24 -20 -6 0 -3 9 7 20 14 15 15 20 4 20 -8 0 -20 -9 -27 -20 -7 -11 -17
-20 -24 -20 -6 0 -3 9 7 20 14 15 15 20 4 20 -8 0 -20 -9 -27 -20 -7 -11 -17
-20 -22 -20 -7 0 -7 7 0 20 15 27 -4 25 -23 -2 -8 -13 -18 -20 -22 -16 -4 4
-2 14 5 23 10 12 10 15 -1 15 -8 0 -20 -9 -27 -21 -7 -12 -16 -18 -19 -15 -3
3 0 12 7 21 10 12 10 15 -1 15 -8 0 -20 -9 -27 -21 -7 -12 -16 -18 -19 -15 -3
3 0 12 7 21 10 12 10 15 -1 15 -8 0 -20 -9 -27 -20 -7 -11 -17 -20 -23 -20 -8
0 -7 5 1 15 7 9 9 19 5 23 -4 4 -14 -3 -22 -15 -19 -28 -38 -30 -23 -3 8 16 8
20 -4 20 -8 0 -18 -9 -21 -20 -3 -11 -11 -20 -16 -20 -13 0 -11 14 3 28 9 9 8
12 -4 12 -9 0 -20 -9 -23 -20 -3 -11 -11 -20 -16 -20 -13 0 -11 14 3 28 9 9 9
12 -1 12 -7 0 -22 -10 -32 -22 l-20 -23 6 23 c4 12 2 22 -3 22 -5 0 -17 -10
-26 -22 l-17 -23 5 23 c5 28 -20 30 -27 2 -3 -11 -10 -20 -16 -20 -9 0 -9 5
-1 20 8 16 8 20 -4 20 -8 0 -18 -9 -21 -20 -3 -11 -11 -20 -16 -20 -13 0 -11
14 3 28 9 9 8 12 -4 12 -9 0 -20 -9 -23 -20 -3 -11 -11 -20 -16 -20 -6 0 -7 9
-4 20 3 11 2 20 -4 20 -5 0 -13 -9 -16 -20 -3 -11 -11 -20 -17 -20 -6 0 -8 9
-5 20 3 13 0 20 -9 20 -8 0 -14 -6 -14 -14 0 -8 -5 -18 -12 -22 -8 -5 -9 0 -6
14 4 15 2 22 -8 22 -8 0 -14 -6 -14 -14 0 -8 -5 -18 -12 -22 -8 -5 -9 0 -6 14
4 14 2 22 -7 22 -7 0 -15 -9 -18 -20 -3 -11 -10 -20 -17 -20 -7 0 -9 8 -5 20
5 14 2 20 -9 20 -9 0 -15 -3 -15 -7 3 -19 -2 -33 -12 -33 -6 0 -8 9 -4 20 5
14 2 20 -9 20 -9 0 -16 -9 -16 -20 0 -11 -5 -20 -11 -20 -6 0 -9 9 -6 20 3 13
0 20 -9 20 -8 0 -14 -9 -14 -20 0 -11 -5 -20 -11 -20 -6 0 -9 9 -6 20 7 28
-19 26 -28 -2 l-8 -23 -4 23 c-5 23 -32 32 -29 10 0 -7 -3 -14 -9 -15 -5 -1
-9 5 -7 13 2 8 -4 14 -13 14 -8 0 -15 -9 -15 -20 0 -11 -5 -20 -11 -20 -6 0
-9 9 -6 20 3 13 0 20 -9 20 -8 0 -14 -9 -14 -20 0 -11 -5 -20 -11 -20 -6 0 -9
9 -6 20 3 13 0 20 -9 20 -8 0 -14 -9 -14 -20 0 -11 -4 -20 -10 -20 -5 0 -10 9
-10 20 0 11 -7 20 -15 20 -8 0 -12 -6 -9 -14 3 -8 1 -17 -5 -21 -7 -3 -11 2
-11 14 0 12 -7 21 -15 21 -9 0 -15 -6 -13 -14 2 -8 -1 -14 -7 -13 -5 1 -9 8
-9 15 3 22 -24 13 -29 -10 l-4 -23 -8 23 c-9 27 -25 29 -25 2 0 -11 -4 -20
-10 -20 -5 0 -10 9 -10 20 0 11 -6 20 -14 20 -9 0 -12 -7 -9 -20 3 -11 0 -20
-6 -20 -6 0 -11 9 -11 20 0 11 -6 20 -14 20 -9 0 -12 -7 -9 -20 3 -11 0 -20
-6 -20 -6 0 -11 9 -11 20 0 12 -7 20 -16 20 -10 0 -14 -6 -11 -15 4 -8 2 -17
-4 -21 -6 -3 -13 3 -16 15 -7 28 -20 27 -26 -1 l-4 -23 -8 23 c-10 29 -35 30
-27 0 3 -14 2 -19 -6 -14 -7 4 -12 14 -12 22 0 8 -6 14 -14 14 -9 0 -12 -7 -9
-20 3 -11 0 -20 -6 -20 -6 0 -11 9 -11 20 0 11 -7 20 -16 20 -11 0 -14 -6 -9
-20 3 -11 2 -20 -4 -20 -5 0 -13 9 -16 20 -3 11 -11 20 -16 20 -6 0 -7 -9 -4
-20 4 -12 2 -20 -5 -20 -7 0 -14 9 -17 20 -3 11 -11 20 -18 20 -9 0 -11 -8 -7
-22 3 -14 2 -19 -6 -14 -7 4 -12 14 -12 22 0 8 -6 14 -14 14 -10 0 -12 -7 -8
-22 3 -14 2 -19 -6 -14 -7 4 -12 14 -12 22 0 8 -7 14 -16 14 -11 0 -14 -6 -9
-22 l6 -23 -20 23 c-24 27 -34 28 -26 2 3 -11 2 -20 -4 -20 -5 0 -13 9 -16 20
-3 11 -13 20 -22 20 -13 0 -13 -3 -3 -15 7 -9 10 -18 7 -21 -9 -9 -27 5 -27
22 0 8 -7 14 -15 14 -13 0 -14 -4 -5 -20 8 -15 8 -20 -1 -20 -6 0 -13 9 -16
20 -8 28 -32 26 -26 -2 l5 -23 -20 23 c-23 25 -53 32 -32 7 7 -9 10 -18 7 -21
-3 -3 -12 3 -19 15 -7 12 -19 21 -27 21 -11 0 -11 -3 -1 -15 7 -9 10 -18 7
-21 -3 -3 -12 3 -19 15 -7 12 -19 21 -27 21 -11 0 -11 -3 -1 -15 7 -9 10 -18
7 -21 -9 -9 -27 5 -27 22 0 8 -7 14 -15 14 -13 0 -14 -4 -5 -20 7 -13 7 -20 1
-20 -6 0 -15 9 -21 20 -6 11 -18 20 -27 20 -14 0 -14 -2 2 -20 10 -11 13 -20
7 -20 -7 0 -17 9 -24 20 -7 11 -19 20 -27 20 -11 0 -11 -3 -1 -15 7 -9 10 -18
7 -21 -3 -3 -12 3 -19 15 -7 12 -23 21 -35 21 -26 0 -30 -12 -8 -30 8 -7 15
-19 15 -26 0 -8 7 -14 15 -14 9 0 15 -10 15 -26 0 -14 10 -35 23 -45 l22 -20
-27 17 c-18 10 -28 25 -28 40 0 15 -6 24 -15 24 -8 0 -15 7 -15 15 0 9 -20 41
-45 73 -79 100 -127 92 530 92 l575 0 0 -30z m-1520 -52 c20 -34 27 -111 12
-136 -7 -10 -12 -8 -24 5 -28 32 -38 61 -38 106 0 67 19 76 50 25z m3220 -26
c0 -46 -5 -65 -27 -97 l-27 -40 -8 50 c-4 28 -5 61 -2 75 6 26 41 70 56 70 4
0 8 -26 8 -58z m-3070 -5 c0 -35 -32 -86 -69 -109 l-34 -22 6 49 c4 40 11 55
38 77 40 34 59 35 59 5z m2936 -10 c32 -29 35 -37 32 -77 l-3 -45 -42 41 c-35
34 -43 48 -43 78 0 44 10 45 56 3z m-2471 -77 c0 -11 -13 -16 -47 -18 -43 -3
-48 -1 -48 18 0 19 5 21 48 18 34 -2 47 -7 47 -18z m135 0 c0 -17 -7 -20 -44
-20 -25 0 -48 5 -51 10 -12 19 6 30 51 30 37 0 44 -3 44 -20z m130 0 c0 -17
-7 -20 -45 -20 -38 0 -45 3 -45 20 0 17 7 20 45 20 38 0 45 -3 45 -20z m130 0
c0 -17 -7 -20 -44 -20 -25 0 -48 5 -51 10 -12 19 6 30 51 30 37 0 44 -3 44
-20z m130 0 c0 -17 -7 -20 -44 -20 -25 0 -48 5 -51 10 -12 19 6 30 51 30 37 0
44 -3 44 -20z m125 0 c0 -11 -13 -16 -47 -18 -43 -3 -48 -1 -48 18 0 19 5 21
48 18 34 -2 47 -7 47 -18z m130 0 c0 -11 -13 -16 -47 -18 -43 -3 -48 -1 -48
18 0 19 5 21 48 18 34 -2 47 -7 47 -18z m55 -2 c0 -16 -3 -19 -11 -11 -6 6 -8
16 -5 22 11 17 16 13 16 -11z m220 2 c0 -19 -7 -20 -89 -20 -85 0 -110 8 -96
30 3 6 46 10 96 10 82 0 89 -1 89 -20z m50 0 c0 -11 -4 -20 -10 -20 -5 0 -10
9 -10 20 0 11 5 20 10 20 6 0 10 -9 10 -20z m135 0 c0 -11 -13 -16 -47 -18
-43 -3 -48 -1 -48 18 0 19 5 21 48 18 34 -2 47 -7 47 -18z m130 0 c0 -11 -13
-16 -47 -18 -43 -3 -48 -1 -48 18 0 19 5 21 48 18 34 -2 47 -7 47 -18z m125 0
c0 -17 -7 -20 -45 -20 -38 0 -45 3 -45 20 0 17 7 20 45 20 38 0 45 -3 45 -20z
m130 0 c0 -17 -7 -20 -44 -20 -25 0 -48 5 -51 10 -12 19 6 30 51 30 37 0 44
-3 44 -20z m130 0 c0 -17 -7 -20 -44 -20 -25 0 -48 5 -51 10 -12 19 6 30 51
30 37 0 44 -3 44 -20z m130 0 c0 -17 -7 -20 -44 -20 -25 0 -48 5 -51 10 -12
19 6 30 51 30 37 0 44 -3 44 -20z m135 0 c0 -11 -13 -16 -47 -18 -43 -3 -48
-1 -48 18 0 19 5 21 48 18 34 -2 47 -7 47 -18z m-2678 -62 c24 -26 32 -45 38
-92 l7 -60 -24 15 c-30 20 -68 95 -68 136 0 41 8 41 47 1z m3299 -54 c-6 -24
-62 -94 -75 -94 -4 0 -4 28 -1 61 5 54 10 65 40 92 l35 31 3 -33 c2 -19 1 -44
-2 -57z m-3146 26 c0 -30 -8 -48 -32 -75 -35 -40 -48 -34 -48 22 0 34 54 108
71 97 5 -3 9 -23 9 -44z m3004 17 c19 -25 26 -46 26 -80 0 -26 -4 -47 -9 -47
-14 0 -60 59 -67 86 -7 28 2 74 16 74 5 0 20 -15 34 -33z m-2534 8 c0 -8 -4
-15 -10 -15 -5 0 -10 7 -10 15 0 8 5 15 10 15 6 0 10 -7 10 -15z m38 3 c-6
-18 -28 -21 -28 -4 0 9 7 16 16 16 9 0 14 -5 12 -12z m60 1 c-2 -6 -8 -10 -13
-10 -5 0 -11 4 -13 10 -2 6 4 11 13 11 9 0 15 -5 13 -11z m32 -4 c0 -8 -4 -15
-10 -15 -5 0 -10 7 -10 15 0 8 5 15 10 15 6 0 10 -7 10 -15z m40 0 c0 -8 -4
-15 -10 -15 -5 0 -10 7 -10 15 0 8 5 15 10 15 6 0 10 -7 10 -15z m60 0 c0 -8
-4 -15 -10 -15 -5 0 -10 7 -10 15 0 8 5 15 10 15 6 0 10 -7 10 -15z m38 4 c-2
-6 -8 -10 -13 -10 -5 0 -11 4 -13 10 -2 6 4 11 13 11 9 0 15 -5 13 -11z m32
-4 c0 -8 -4 -15 -10 -15 -5 0 -10 7 -10 15 0 8 5 15 10 15 6 0 10 -7 10 -15z
m60 -1 c0 -17 -22 -14 -28 4 -2 7 3 12 12 12 9 0 16 -7 16 -16z m38 5 c-2 -6
-8 -10 -13 -10 -5 0 -11 4 -13 10 -2 6 4 11 13 11 9 0 15 -5 13 -11z m32 -4
c0 -8 -4 -15 -10 -15 -5 0 -10 7 -10 15 0 8 5 15 10 15 6 0 10 -7 10 -15z m58
4 c-2 -6 -8 -10 -13 -10 -5 0 -11 4 -13 10 -2 6 4 11 13 11 9 0 15 -5 13 -11z
m40 -1 c-6 -18 -28 -21 -28 -4 0 9 7 16 16 16 9 0 14 -5 12 -12z m32 -3 c0 -8
-4 -15 -10 -15 -5 0 -10 7 -10 15 0 8 5 15 10 15 6 0 10 -7 10 -15z m50 0 c0
-8 -4 -15 -10 -15 -5 0 -10 7 -10 15 0 8 5 15 10 15 6 0 10 -7 10 -15z m40 0
c0 -8 -4 -15 -10 -15 -5 0 -10 7 -10 15 0 8 5 15 10 15 6 0 10 -7 10 -15z m38
3 c-6 -18 -28 -21 -28 -4 0 9 7 16 16 16 9 0 14 -5 12 -12z m52 -3 c0 -8 -4
-15 -10 -15 -5 0 -10 7 -10 15 0 8 5 15 10 15 6 0 10 -7 10 -15z m40 0 c0 -8
-4 -15 -10 -15 -5 0 -10 7 -10 15 0 8 5 15 10 15 6 0 10 -7 10 -15z m38 3 c-6
-18 -28 -21 -28 -4 0 9 7 16 16 16 9 0 14 -5 12 -12z m52 -3 c0 -8 -4 -15 -10
-15 -5 0 -10 7 -10 15 0 8 5 15 10 15 6 0 10 -7 10 -15z m60 -1 c0 -17 -22
-14 -28 4 -2 7 3 12 12 12 9 0 16 -7 16 -16z m40 1 c0 -8 -7 -15 -15 -15 -8 0
-15 7 -15 15 0 8 7 15 15 15 8 0 15 -7 15 -15z m30 0 c0 -8 -4 -15 -10 -15 -5
0 -10 7 -10 15 0 8 5 15 10 15 6 0 10 -7 10 -15z m60 1 c0 -8 -10 -13 -25 -13
-15 0 -25 5 -25 13 0 8 10 14 25 14 15 0 25 -6 25 -14z m30 -1 c0 -8 -4 -15
-10 -15 -5 0 -10 7 -10 15 0 8 5 15 10 15 6 0 10 -7 10 -15z m50 0 c0 -8 -4
-15 -10 -15 -5 0 -10 7 -10 15 0 8 5 15 10 15 6 0 10 -7 10 -15z m60 0 c0 -8
-4 -15 -10 -15 -5 0 -10 7 -10 15 0 8 5 15 10 15 6 0 10 -7 10 -15z m40 -1 c0
-9 -5 -14 -12 -12 -18 6 -21 28 -4 28 9 0 16 -7 16 -16z m38 4 c-6 -18 -28
-21 -28 -4 0 9 7 16 16 16 9 0 14 -5 12 -12z m52 -3 c0 -8 -4 -15 -10 -15 -5
0 -10 7 -10 15 0 8 5 15 10 15 6 0 10 -7 10 -15z m40 -1 c0 -9 -5 -14 -12 -12
-18 6 -21 28 -4 28 9 0 16 -7 16 -16z m38 5 c-2 -6 -8 -10 -13 -10 -5 0 -11 4
-13 10 -2 6 4 11 13 11 9 0 15 -5 13 -11z m52 -4 c0 -8 -4 -15 -10 -15 -5 0
-10 7 -10 15 0 8 5 15 10 15 6 0 10 -7 10 -15z m30 0 c0 -8 -4 -15 -10 -15 -5
0 -10 7 -10 15 0 8 5 15 10 15 6 0 10 -7 10 -15z m40 0 c0 -8 -4 -15 -10 -15
-5 0 -10 7 -10 15 0 8 5 15 10 15 6 0 10 -7 10 -15z m60 -1 c0 -17 -22 -14
-28 4 -2 7 3 12 12 12 9 0 16 -7 16 -16z m30 1 c0 -8 -4 -15 -10 -15 -5 0 -10
7 -10 15 0 8 5 15 10 15 6 0 10 -7 10 -15z m40 0 c0 -8 -4 -15 -10 -15 -5 0
-10 7 -10 15 0 8 5 15 10 15 6 0 10 -7 10 -15z m58 4 c-2 -6 -8 -10 -13 -10
-5 0 -11 4 -13 10 -2 6 4 11 13 11 9 0 15 -5 13 -11z m32 -4 c0 -8 -4 -15 -10
-15 -5 0 -10 7 -10 15 0 8 5 15 10 15 6 0 10 -7 10 -15z m40 -1 c0 -9 -5 -14
-12 -12 -18 6 -21 28 -4 28 9 0 16 -7 16 -16z m60 0 c0 -9 -5 -14 -12 -12 -18
6 -21 28 -4 28 9 0 16 -7 16 -16z m30 1 c0 -8 -4 -15 -10 -15 -5 0 -10 7 -10
15 0 8 5 15 10 15 6 0 10 -7 10 -15z m40 0 c0 -8 -4 -15 -10 -15 -5 0 -10 7
-10 15 0 8 5 15 10 15 6 0 10 -7 10 -15z m60 0 c0 -8 -4 -15 -10 -15 -5 0 -10
7 -10 15 0 8 5 15 10 15 6 0 10 -7 10 -15z m40 -1 c0 -17 -22 -14 -28 4 -2 7
3 12 12 12 9 0 16 -7 16 -16z m-2020 -59 c0 -8 -4 -15 -10 -15 -5 0 -10 7 -10
15 0 8 5 15 10 15 6 0 10 -7 10 -15z m40 0 c0 -8 -7 -15 -15 -15 -8 0 -15 7
-15 15 0 8 7 15 15 15 8 0 15 -7 15 -15z m60 0 c0 -8 -7 -15 -15 -15 -8 0 -15
7 -15 15 0 8 7 15 15 15 8 0 15 -7 15 -15z m30 0 c0 -8 -4 -15 -10 -15 -5 0
-10 7 -10 15 0 8 5 15 10 15 6 0 10 -7 10 -15z m40 0 c0 -8 -4 -15 -10 -15 -5
0 -10 7 -10 15 0 8 5 15 10 15 6 0 10 -7 10 -15z m60 0 c0 -8 -4 -15 -10 -15
-5 0 -10 7 -10 15 0 8 5 15 10 15 6 0 10 -7 10 -15z m40 0 c0 -8 -7 -15 -15
-15 -8 0 -15 7 -15 15 0 8 7 15 15 15 8 0 15 -7 15 -15z m30 0 c0 -8 -4 -15
-10 -15 -5 0 -10 7 -10 15 0 8 5 15 10 15 6 0 10 -7 10 -15z m60 0 c0 -8 -7
-15 -15 -15 -8 0 -15 7 -15 15 0 8 7 15 15 15 8 0 15 -7 15 -15z m40 0 c0 -8
-7 -15 -15 -15 -8 0 -15 7 -15 15 0 8 7 15 15 15 8 0 15 -7 15 -15z m30 0 c0
-8 -4 -15 -10 -15 -5 0 -10 7 -10 15 0 8 5 15 10 15 6 0 10 -7 10 -15z m60 0
c0 -8 -7 -15 -15 -15 -8 0 -15 7 -15 15 0 8 7 15 15 15 8 0 15 -7 15 -15z m32
0 c0 -5 -5 -11 -11 -13 -6 -2 -11 4 -11 13 0 9 5 15 11 13 6 -2 11 -8 11 -13z
m38 0 c0 -8 -4 -15 -10 -15 -5 0 -10 7 -10 15 0 8 5 15 10 15 6 0 10 -7 10
-15z m50 0 c0 -8 -4 -15 -10 -15 -5 0 -10 7 -10 15 0 8 5 15 10 15 6 0 10 -7
10 -15z m40 0 c0 -8 -4 -15 -10 -15 -5 0 -10 7 -10 15 0 8 5 15 10 15 6 0 10
-7 10 -15z m38 -3 c2 -7 -3 -12 -12 -12 -9 0 -16 7 -16 16 0 17 22 14 28 -4z
m52 3 c0 -8 -4 -15 -10 -15 -5 0 -10 7 -10 15 0 8 5 15 10 15 6 0 10 -7 10
-15z m40 0 c0 -8 -4 -15 -10 -15 -5 0 -10 7 -10 15 0 8 5 15 10 15 6 0 10 -7
10 -15z m38 -3 c2 -7 -3 -12 -12 -12 -9 0 -16 7 -16 16 0 17 22 14 28 -4z m52
3 c0 -8 -4 -15 -10 -15 -5 0 -10 7 -10 15 0 8 5 15 10 15 6 0 10 -7 10 -15z
m60 -1 c0 -9 -5 -14 -12 -12 -18 6 -21 28 -4 28 9 0 16 -7 16 -16z m40 1 c0
-8 -7 -15 -15 -15 -8 0 -15 7 -15 15 0 8 7 15 15 15 8 0 15 -7 15 -15z m30 0
c0 -8 -4 -15 -10 -15 -5 0 -10 7 -10 15 0 8 5 15 10 15 6 0 10 -7 10 -15z m60
0 c0 -9 -9 -15 -25 -15 -16 0 -25 6 -25 15 0 9 9 15 25 15 16 0 25 -6 25 -15z
m30 0 c0 -8 -4 -15 -10 -15 -5 0 -10 7 -10 15 0 8 5 15 10 15 6 0 10 -7 10
-15z m50 0 c0 -8 -4 -15 -10 -15 -5 0 -10 7 -10 15 0 8 5 15 10 15 6 0 10 -7
10 -15z m60 0 c0 -8 -4 -15 -10 -15 -5 0 -10 7 -10 15 0 8 5 15 10 15 6 0 10
-7 10 -15z m40 0 c0 -8 -7 -15 -15 -15 -8 0 -15 7 -15 15 0 8 7 15 15 15 8 0
15 -7 15 -15z m40 0 c0 -8 -7 -15 -15 -15 -8 0 -15 7 -15 15 0 8 7 15 15 15 8
0 15 -7 15 -15z m50 0 c0 -8 -4 -15 -10 -15 -5 0 -10 7 -10 15 0 8 5 15 10 15
6 0 10 -7 10 -15z m40 0 c0 -8 -7 -15 -15 -15 -16 0 -20 12 -8 23 11 12 23 8
23 -8z m40 0 c0 -8 -7 -15 -15 -15 -8 0 -15 7 -15 15 0 8 7 15 15 15 8 0 15
-7 15 -15z m50 0 c0 -8 -4 -15 -10 -15 -5 0 -10 7 -10 15 0 8 5 15 10 15 6 0
10 -7 10 -15z m30 0 c0 -8 -4 -15 -10 -15 -5 0 -10 7 -10 15 0 8 5 15 10 15 6
0 10 -7 10 -15z m40 0 c0 -8 -4 -15 -10 -15 -5 0 -10 7 -10 15 0 8 5 15 10 15
6 0 10 -7 10 -15z m60 0 c0 -8 -7 -15 -15 -15 -8 0 -15 7 -15 15 0 8 7 15 15
15 8 0 15 -7 15 -15z m30 0 c0 -8 -4 -15 -10 -15 -5 0 -10 7 -10 15 0 8 5 15
10 15 6 0 10 -7 10 -15z m40 0 c0 -8 -4 -15 -10 -15 -5 0 -10 7 -10 15 0 8 5
15 10 15 6 0 10 -7 10 -15z m60 0 c0 -8 -7 -15 -15 -15 -8 0 -15 7 -15 15 0 8
7 15 15 15 8 0 15 -7 15 -15z m30 0 c0 -8 -4 -15 -10 -15 -5 0 -10 7 -10 15 0
8 5 15 10 15 6 0 10 -7 10 -15z m40 0 c0 -8 -7 -15 -15 -15 -8 0 -15 7 -15 15
0 8 7 15 15 15 8 0 15 -7 15 -15z m60 0 c0 -8 -7 -15 -15 -15 -16 0 -20 12 -8
23 11 12 23 8 23 -8z m30 0 c0 -8 -4 -15 -10 -15 -5 0 -10 7 -10 15 0 8 5 15
10 15 6 0 10 -7 10 -15z m40 0 c0 -8 -4 -15 -10 -15 -5 0 -10 7 -10 15 0 8 5
15 10 15 6 0 10 -7 10 -15z m60 0 c0 -8 -4 -15 -10 -15 -5 0 -10 7 -10 15 0 8
5 15 10 15 6 0 10 -7 10 -15z m40 0 c0 -8 -7 -15 -15 -15 -8 0 -15 7 -15 15 0
8 7 15 15 15 8 0 15 -7 15 -15z m-2460 -85 c14 -33 7 -86 -14 -115 -13 -18
-15 -16 -33 21 -21 40 -19 65 6 112 14 27 24 23 41 -18z m2946 -5 c16 -43 16
-47 -1 -85 -21 -47 -28 -49 -43 -15 -22 48 -10 145 18 145 4 0 16 -20 26 -45z
m-2506 20 c0 -8 -4 -15 -10 -15 -5 0 -10 7 -10 15 0 8 5 15 10 15 6 0 10 -7
10 -15z m38 4 c-2 -6 -8 -10 -13 -10 -5 0 -11 4 -13 10 -2 6 4 11 13 11 9 0
15 -5 13 -11z m60 0 c-2 -6 -8 -10 -13 -10 -5 0 -11 4 -13 10 -2 6 4 11 13 11
9 0 15 -5 13 -11z m32 -5 c0 -8 -4 -12 -10 -9 -5 3 -10 10 -10 16 0 5 5 9 10
9 6 0 10 -7 10 -16z m40 1 c0 -8 -4 -15 -10 -15 -5 0 -10 7 -10 15 0 8 5 15
10 15 6 0 10 -7 10 -15z m60 0 c0 -8 -4 -15 -10 -15 -5 0 -10 7 -10 15 0 8 5
15 10 15 6 0 10 -7 10 -15z m38 4 c-2 -6 -8 -10 -13 -10 -5 0 -11 4 -13 10 -2
6 4 11 13 11 9 0 15 -5 13 -11z m32 -4 c0 -8 -4 -15 -10 -15 -5 0 -10 7 -10
15 0 8 5 15 10 15 6 0 10 -7 10 -15z m60 -1 c0 -17 -22 -14 -28 4 -2 7 3 12
12 12 9 0 16 -7 16 -16z m38 5 c-2 -6 -8 -10 -13 -10 -5 0 -11 4 -13 10 -2 6
4 11 13 11 9 0 15 -5 13 -11z m32 -4 c0 -8 -4 -15 -10 -15 -5 0 -10 7 -10 15
0 8 5 15 10 15 6 0 10 -7 10 -15z m58 4 c-2 -6 -8 -10 -13 -10 -5 0 -11 4 -13
10 -2 6 4 11 13 11 9 0 15 -5 13 -11z m40 -1 c-6 -18 -28 -21 -28 -4 0 9 7 16
16 16 9 0 14 -5 12 -12z m32 -3 c0 -8 -4 -15 -10 -15 -5 0 -10 7 -10 15 0 8 5
15 10 15 6 0 10 -7 10 -15z m50 0 c0 -8 -4 -15 -10 -15 -5 0 -10 7 -10 15 0 8
5 15 10 15 6 0 10 -7 10 -15z m40 0 c0 -8 -4 -15 -10 -15 -5 0 -10 7 -10 15 0
8 5 15 10 15 6 0 10 -7 10 -15z m38 3 c-6 -18 -28 -21 -28 -4 0 9 7 16 16 16
9 0 14 -5 12 -12z m52 -3 c0 -8 -4 -15 -10 -15 -5 0 -10 7 -10 15 0 8 5 15 10
15 6 0 10 -7 10 -15z m40 0 c0 -8 -4 -15 -10 -15 -5 0 -10 7 -10 15 0 8 5 15
10 15 6 0 10 -7 10 -15z m38 4 c-2 -6 -8 -10 -13 -10 -5 0 -11 4 -13 10 -2 6
4 11 13 11 9 0 15 -5 13 -11z m52 -5 c0 -8 -4 -12 -10 -9 -5 3 -10 10 -10 16
0 5 5 9 10 9 6 0 10 -7 10 -16z m60 0 c0 -9 -5 -14 -12 -12 -18 6 -21 28 -4
28 9 0 16 -7 16 -16z m38 5 c-2 -6 -8 -10 -13 -10 -5 0 -11 4 -13 10 -2 6 4
11 13 11 9 0 15 -5 13 -11z m32 -4 c0 -8 -4 -15 -10 -15 -5 0 -10 7 -10 15 0
8 5 15 10 15 6 0 10 -7 10 -15z m58 3 c-6 -18 -48 -21 -48 -3 0 9 10 15 26 15
15 0 24 -5 22 -12z m32 -3 c0 -8 -4 -15 -10 -15 -5 0 -10 7 -10 15 0 8 5 15
10 15 6 0 10 -7 10 -15z m50 0 c0 -8 -4 -15 -10 -15 -5 0 -10 7 -10 15 0 8 5
15 10 15 6 0 10 -7 10 -15z m60 0 c0 -8 -4 -15 -10 -15 -5 0 -10 7 -10 15 0 8
5 15 10 15 6 0 10 -7 10 -15z m38 4 c-2 -6 -8 -10 -13 -10 -5 0 -11 4 -13 10
-2 6 4 11 13 11 9 0 15 -5 13 -11z m40 0 c-2 -6 -8 -10 -13 -10 -5 0 -11 4
-13 10 -2 6 4 11 13 11 9 0 15 -5 13 -11z m52 -4 c0 -8 -4 -15 -10 -15 -5 0
-10 7 -10 15 0 8 5 15 10 15 6 0 10 -7 10 -15z m40 -1 c0 -9 -5 -14 -12 -12
-18 6 -21 28 -4 28 9 0 16 -7 16 -16z m38 5 c-2 -6 -8 -10 -13 -10 -5 0 -11 4
-13 10 -2 6 4 11 13 11 9 0 15 -5 13 -11z m52 -4 c0 -8 -4 -15 -10 -15 -5 0
-10 7 -10 15 0 8 5 15 10 15 6 0 10 -7 10 -15z m30 0 c0 -8 -4 -15 -10 -15 -5
0 -10 7 -10 15 0 8 5 15 10 15 6 0 10 -7 10 -15z m40 0 c0 -8 -4 -15 -10 -15
-5 0 -10 7 -10 15 0 8 5 15 10 15 6 0 10 -7 10 -15z m58 4 c-2 -6 -8 -10 -13
-10 -5 0 -11 4 -13 10 -2 6 4 11 13 11 9 0 15 -5 13 -11z m32 -4 c0 -8 -4 -15
-10 -15 -5 0 -10 7 -10 15 0 8 5 15 10 15 6 0 10 -7 10 -15z m40 0 c0 -8 -4
-15 -10 -15 -5 0 -10 7 -10 15 0 8 5 15 10 15 6 0 10 -7 10 -15z m58 4 c-2 -6
-8 -10 -13 -10 -5 0 -11 4 -13 10 -2 6 4 11 13 11 9 0 15 -5 13 -11z m32 -4
c0 -8 -4 -15 -10 -15 -5 0 -10 7 -10 15 0 8 5 15 10 15 6 0 10 -7 10 -15z m38
4 c-2 -6 -8 -10 -13 -10 -5 0 -11 4 -13 10 -2 6 4 11 13 11 9 0 15 -5 13 -11z
m62 -5 c0 -9 -5 -14 -12 -12 -18 6 -21 28 -4 28 9 0 16 -7 16 -16z m30 1 c0
-8 -4 -15 -10 -15 -5 0 -10 7 -10 15 0 8 5 15 10 15 6 0 10 -7 10 -15z m40 0
c0 -8 -4 -15 -10 -15 -5 0 -10 7 -10 15 0 8 5 15 10 15 6 0 10 -7 10 -15z m60
0 c0 -8 -4 -15 -10 -15 -5 0 -10 7 -10 15 0 8 5 15 10 15 6 0 10 -7 10 -15z
m38 4 c-2 -6 -8 -10 -13 -10 -5 0 -11 4 -13 10 -2 6 4 11 13 11 9 0 15 -5 13
-11z m-2573 -69 c18 -15 49 -89 41 -97 -23 -23 -126 74 -126 119 0 17 2 17 37
3 20 -9 42 -20 48 -25z m3204 0 c-13 -36 -82 -100 -109 -100 -25 0 -25 1 5 59
18 37 33 52 62 64 47 19 55 15 42 -23z m-2611 -27 c2 -38 7 -53 18 -53 8 0 14
10 14 25 0 16 6 25 15 25 9 0 15 -9 15 -25 0 -18 5 -25 20 -25 15 0 20 7 20
25 0 16 6 25 15 25 9 0 15 -9 15 -25 0 -18 5 -25 20 -25 15 0 20 7 20 25 0 14
5 25 10 25 6 0 10 -11 10 -25 0 -18 5 -25 20 -25 15 0 20 7 20 25 0 16 6 25
15 25 9 0 15 -9 15 -25 0 -16 6 -25 15 -25 9 0 15 9 15 25 0 16 6 25 15 25 9
0 15 -9 15 -25 0 -18 5 -25 20 -25 15 0 20 7 20 25 0 16 6 25 15 25 9 0 15 -9
15 -25 0 -16 6 -25 15 -25 9 0 15 9 15 25 0 16 6 25 15 25 9 0 15 -9 15 -25 0
-18 5 -25 20 -25 15 0 20 7 20 25 0 16 6 25 15 25 9 0 15 -9 15 -25 0 -16 6
-25 15 -25 9 0 15 9 15 25 0 16 6 25 15 25 9 0 15 -9 15 -25 0 -18 5 -25 20
-25 15 0 20 7 20 25 0 16 6 25 16 25 12 0 15 -7 12 -25 -4 -19 -1 -25 13 -25
16 0 19 8 19 56 l0 55 48 -3 47 -3 3 -52 c2 -38 7 -53 18 -53 10 0 14 14 14
55 0 42 3 55 15 55 12 0 15 -13 15 -55 0 -70 18 -72 22 -2 l3 52 88 3 87 3 0
-56 c0 -41 4 -55 14 -55 11 0 16 15 18 52 2 41 7 54 21 56 14 3 17 -5 17 -52
0 -43 3 -56 15 -56 12 0 15 13 15 56 l0 55 48 -3 47 -3 3 -52 c2 -38 7 -53 18
-53 8 0 14 10 14 25 0 16 6 25 15 25 9 0 15 -9 15 -25 0 -18 5 -25 20 -25 15
0 20 7 20 25 0 16 6 25 15 25 9 0 15 -9 15 -25 0 -16 6 -25 15 -25 9 0 15 9
15 25 0 14 5 25 10 25 6 0 10 -11 10 -25 0 -18 5 -25 20 -25 15 0 20 7 20 25
0 16 6 25 15 25 9 0 15 -9 15 -25 0 -16 6 -25 15 -25 9 0 15 9 15 25 0 16 6
25 15 25 9 0 15 -9 15 -25 0 -18 5 -25 20 -25 15 0 20 7 20 25 0 16 6 25 15
25 9 0 15 -9 15 -25 0 -16 6 -25 15 -25 9 0 15 9 15 25 0 16 6 25 15 25 9 0
15 -9 15 -25 0 -18 5 -25 20 -25 15 0 20 7 20 25 0 16 6 25 15 25 9 0 15 -9
15 -25 0 -16 6 -25 15 -25 9 0 15 9 15 25 0 16 6 25 15 25 9 0 15 -9 15 -25 0
-18 5 -25 20 -25 15 0 20 7 20 25 0 16 6 25 15 25 9 0 15 -9 15 -25 0 -18 5
-25 20 -25 18 0 20 7 20 55 0 54 0 55 30 55 30 0 30 -1 30 -54 0 -61 7 -66 90
-66 44 0 55 -5 112 -52 20 -17 -37 -18 -1218 -18 -1181 0 -1237 1 -1215 18 13
9 31 25 39 35 11 11 32 17 62 17 84 0 90 5 90 67 0 53 0 54 28 51 25 -3 27 -7
30 -55z m132 37 c0 -17 -7 -20 -44 -20 -25 0 -48 5 -51 10 -12 19 6 30 51 30
37 0 44 -3 44 -20z m130 0 c0 -17 -7 -20 -45 -20 -38 0 -45 3 -45 20 0 17 7
20 45 20 38 0 45 -3 45 -20z m130 0 c0 -17 -7 -20 -44 -20 -25 0 -48 5 -51 10
-12 19 6 30 51 30 37 0 44 -3 44 -20z m130 0 c0 -17 -7 -20 -44 -20 -45 0 -63
11 -51 30 3 6 26 10 51 10 37 0 44 -3 44 -20z m125 0 c0 -11 -13 -16 -47 -18
-43 -3 -48 -1 -48 18 0 19 5 21 48 18 34 -2 47 -7 47 -18z m720 0 c0 -11 -13
-16 -47 -18 -43 -3 -48 -1 -48 18 0 19 5 21 48 18 34 -2 47 -7 47 -18z m125 0
c0 -17 -7 -20 -45 -20 -38 0 -45 3 -45 20 0 17 7 20 45 20 38 0 45 -3 45 -20z
m130 0 c0 -17 -7 -20 -44 -20 -45 0 -63 11 -51 30 3 6 26 10 51 10 37 0 44 -3
44 -20z m128 3 c-3 -14 -13 -18 -48 -18 -35 0 -45 4 -48 18 -3 14 4 17 48 17
44 0 51 -3 48 -17z m132 -3 c0 -17 -7 -20 -44 -20 -25 0 -48 5 -51 10 -12 19
6 30 51 30 37 0 44 -3 44 -20z m-2274 -126 c3 -18 3 -47 -1 -65 l-7 -33 -29
32 c-23 26 -29 42 -29 80 0 27 3 52 7 55 12 12 53 -35 59 -69z m2788 45 c11
-57 6 -75 -29 -109 l-35 -34 0 61 c0 46 5 67 21 87 27 34 35 33 43 -5z m-2935
-69 c29 -8 99 -73 101 -92 1 -29 -113 14 -140 52 -35 49 -25 59 39 40z m3075
2 c3 -5 -8 -25 -25 -45 -30 -36 -83 -61 -119 -55 -19 3 -19 6 11 42 42 50 117
83 133 58z m-2826 -82 c21 -42 30 -100 15 -100 -4 0 -24 17 -45 37 -34 33 -38
42 -38 86 0 49 0 49 23 35 12 -8 32 -34 45 -58z m2588 33 c-3 -21 -6 -45 -6
-54 0 -9 -19 -31 -41 -49 l-42 -33 5 52 c4 42 12 59 39 87 42 44 53 43 45 -3z
m-2495 -96 c33 -21 84 -106 77 -127 -6 -19 -107 58 -114 88 -3 15 -8 35 -11
45 -6 23 7 22 48 -6z m2379 3 c0 -36 -29 -79 -70 -105 -47 -29 -50 -30 -50 -9
0 32 34 86 69 110 43 29 51 30 51 4z m-2537 -26 c26 -20 47 -41 47 -47 0 -20
-98 -1 -135 27 -47 36 -46 56 3 56 29 0 50 -9 85 -36z m2777 28 c0 -14 -54
-60 -83 -71 -16 -6 -45 -11 -65 -11 l-37 0 47 45 c41 40 52 45 92 45 25 0 46
-4 46 -8z m-2451 -109 c30 -24 68 -89 58 -100 -3 -2 -28 7 -57 22 -48 24 -80
66 -80 105 0 16 39 2 79 -27z m2067 5 c-3 -17 -14 -40 -23 -50 -16 -18 -103
-62 -109 -55 -2 2 6 23 19 48 16 32 34 50 67 67 24 12 46 22 48 22 3 0 2 -14
-2 -32z m-2228 -40 l46 -32 -32 -8 c-40 -11 -99 4 -137 33 -32 26 -20 39 38
39 27 0 52 -10 85 -32z m2450 23 c11 -6 7 -13 -14 -30 -39 -31 -93 -44 -134
-34 l-34 9 44 32 c46 32 108 42 138 23z m-2139 -46 c33 -17 81 -70 81 -90 0
-22 -90 12 -122 46 -49 52 -24 78 41 44z m1764 -2 c-16 -44 -38 -63 -94 -82
-32 -11 -59 -16 -59 -12 0 21 49 78 80 93 47 24 82 24 73 1z m-1920 -59 c45
-23 49 -28 32 -35 -34 -13 -105 -10 -141 7 -40 19 -43 31 -11 44 37 15 65 11
120 -16z m354 -12 c31 -22 60 -68 50 -78 -3 -3 -29 2 -57 11 -49 16 -90 58
-90 91 0 17 62 1 97 -24z m1393 19 c0 -34 -45 -75 -95 -89 -53 -14 -61 -12
-47 15 21 39 89 84 140 93 1 0 2 -9 2 -19z m390 5 l24 -14 -34 -21 c-37 -22
-122 -29 -150 -11 -17 11 -16 12 35 38 46 24 90 27 125 8z m-1627 -60 c31 -12
87 -68 87 -85 0 -5 -26 -2 -57 5 -42 9 -64 21 -80 41 -41 51 -19 68 50 39z
m1053 -14 c-8 -16 -22 -34 -30 -42 -20 -16 -126 -41 -126 -30 0 5 12 23 27 41
30 36 74 58 116 59 27 0 27 -1 13 -28z m-1381 -1 l50 -18 -32 -16 c-41 -22
-105 -22 -145 -1 l-32 17 35 18 c42 22 60 22 124 0z m1760 5 c19 -8 35 -19 35
-25 0 -12 -56 -31 -95 -31 -36 0 -95 18 -95 29 0 8 78 39 103 40 10 1 33 -6
52 -13z m-1238 -27 c30 -11 73 -47 73 -61 0 -4 -25 -8 -55 -8 -47 0 -59 4 -90
32 -27 23 -33 33 -23 39 18 12 61 11 95 -2z m172 1 c34 -9 81 -46 81 -62 0 -4
-25 -8 -55 -8 -47 0 -59 4 -90 32 -27 23 -33 33 -23 39 17 11 46 11 87 -1z
m346 -10 c0 -28 -64 -60 -121 -60 -57 0 -65 7 -36 33 47 42 157 62 157 27z
m178 14 c11 -11 -12 -43 -43 -59 -31 -16 -130 -21 -130 -7 0 37 146 93 173 66z
m-1033 -46 l35 -15 -32 -16 c-37 -20 -86 -22 -132 -6 -38 13 -39 24 -3 44 31
17 79 15 132 -7z m1422 -2 c22 -15 22 -16 -15 -31 -47 -19 -88 -19 -135 1
l-37 16 50 19 c55 20 103 19 137 -5z m-1253 -38 c28 -6 51 -15 51 -19 0 -14
-69 -39 -110 -39 -47 0 -84 16 -74 31 6 10 61 38 76 39 3 0 29 -5 57 -12z
m1046 -12 l40 -25 -28 -10 c-40 -16 -103 -14 -137 4 -41 21 -38 30 13 42 63
16 69 15 112 -11z m-556 -4 c8 -16 18 -17 66 -12 60 7 98 -5 123 -37 20 -27
14 -33 -27 -33 -48 0 -89 14 -118 42 -26 25 -31 14 -6 -14 9 -10 13 -21 9 -25
-4 -4 -22 10 -39 31 l-33 38 -24 -36 c-14 -20 -31 -36 -38 -36 -8 0 -10 5 -5
13 58 91 74 103 92 69z m-283 -12 c43 0 37 -19 -15 -48 -39 -22 -115 -30 -125
-13 -11 17 69 74 92 66 8 -3 29 -5 48 -5z m181 0 l36 0 -19 -21 c-35 -39 -142
-67 -158 -40 -11 17 69 74 92 66 8 -3 30 -5 49 -5z m456 -28 c36 -34 34 -42
-12 -42 -49 0 -89 14 -119 43 l-24 22 44 6 c56 8 77 2 111 -29z"/>
<path d="M1473 2774 c-3 -8 -1 -24 4 -36 9 -20 9 -20 38 4 16 14 25 30 21 36
-11 17 -56 15 -63 -4z"/>
<path d="M1217 2732 c-19 -21 -22 -64 -7 -91 14 -28 64 -45 89 -32 48 26 49
85 4 121 -32 25 -65 26 -86 2z"/>
<path d="M787 2589 c-45 -26 -36 -99 15 -125 31 -16 59 -12 83 12 49 49 -38
149 -98 113z"/>
</g>
</svg>
