<?xml version="1.0" standalone="no"?>
<!DOCTYPE svg PUBLIC "-//W3C//DTD SVG 20010904//EN"
 "http://www.w3.org/TR/2001/REC-SVG-20010904/DTD/svg10.dtd">
<svg version="1.0" xmlns="http://www.w3.org/2000/svg"
 width="2040.000000pt" height="1278.000000pt" viewBox="0 0 2040.000000 1278.000000"
 preserveAspectRatio="xMidYMid meet">

<g transform="translate(0.000000,1278.000000) scale(0.100000,-0.100000)"
fill="#000000" stroke="none">
<path d="M10350 12759 c-178 -31 -324 -172 -361 -347 -16 -78 -7 -254 16 -312
50 -125 142 -212 264 -251 92 -30 271 -37 365 -15 185 44 311 173 351 361 57
268 -61 486 -300 552 -64 18 -263 25 -335 12z m271 -90 c113 -49 171 -177 170
-379 -1 -270 -116 -414 -317 -397 -163 13 -259 121 -286 322 -25 183 25 363
119 428 84 59 211 70 314 26z"/>
<path d="M9250 12743 c-25 -2 -124 -10 -220 -18 -96 -8 -223 -17 -282 -21
-105 -6 -108 -7 -108 -30 0 -20 6 -24 50 -30 33 -4 51 -12 54 -23 27 -97 67
-732 47 -760 -5 -8 -29 -17 -53 -20 -38 -5 -43 -9 -46 -35 l-4 -29 69 7 c37 3
137 11 222 16 85 5 155 11 157 13 2 1 1 13 -3 25 -5 19 -12 22 -53 22 -31 0
-54 6 -64 16 -9 8 -16 16 -16 17 0 1 -7 67 -15 147 -22 229 -39 580 -28 591
24 24 266 30 289 7 2 -3 7 -28 11 -57 5 -48 7 -51 34 -51 l29 0 0 110 c0 82
-3 110 -12 108 -7 -1 -33 -3 -58 -5z"/>
<path d="M11710 12662 c0 -25 5 -29 43 -38 l42 -9 3 -55 c5 -86 -58 -651 -78
-706 -8 -21 -16 -24 -60 -24 -48 0 -50 -1 -50 -28 l0 -27 210 -23 c116 -13
215 -20 220 -17 6 3 10 15 10 25 0 14 -12 21 -56 31 -31 7 -59 19 -62 27 -10
27 49 614 74 736 6 29 6 29 70 23 119 -9 169 -64 161 -179 -5 -86 -29 -126
-90 -157 -41 -20 -53 -22 -87 -13 -45 11 -54 5 -44 -32 5 -21 15 -27 62 -37
130 -27 264 31 326 141 26 47 31 65 31 130 0 85 -12 111 -68 154 -47 36 -125
52 -332 71 -99 8 -207 20 -240 25 -84 14 -85 13 -85 -18z"/>
<path d="M7470 12579 c-328 -35 -506 -239 -469 -537 36 -296 230 -446 532
-412 213 25 361 115 432 266 33 70 44 125 45 219 0 204 -83 355 -233 425 -54
26 -172 52 -217 48 -8 0 -49 -4 -90 -9z m109 -85 c100 -29 174 -123 211 -268
39 -154 36 -286 -11 -377 -26 -53 -101 -114 -156 -130 -118 -33 -223 -8 -296
70 -91 97 -130 214 -131 391 -1 106 1 119 27 172 40 82 102 128 202 148 63 12
97 11 154 -6z"/>
<path d="M13120 12497 c0 -9 -2 -22 -5 -29 -4 -10 9 -19 42 -29 44 -14 48 -18
51 -50 5 -55 -113 -634 -144 -707 -13 -33 -15 -34 -64 -30 -46 3 -51 1 -57
-20 -3 -13 -4 -25 -2 -27 6 -5 361 -78 389 -79 20 -1 25 4 25 23 0 19 -8 27
-40 38 -22 7 -43 17 -47 21 -5 5 3 71 17 148 31 167 43 214 54 214 11 0 96
-145 210 -357 62 -114 88 -154 104 -157 12 -3 73 -16 135 -29 l112 -24 7 25
c3 14 2 27 -3 29 -57 20 -112 103 -289 434 -58 108 -73 145 -63 151 97 61 303
184 338 201 33 16 61 22 103 20 56 -1 57 -1 57 26 0 26 -3 27 -92 45 -156 31
-145 31 -152 3 -6 -27 -74 -81 -246 -195 -138 -91 -220 -137 -220 -122 0 21
61 294 72 323 10 25 15 27 63 27 46 0 53 3 58 22 8 31 4 35 -55 42 -54 7 -319
63 -344 73 -8 3 -14 -1 -14 -10z"/>
<path d="M6110 12329 c-105 -27 -105 -27 -103 -57 3 -31 -132 -314 -203 -426
-45 -71 -41 -75 -83 109 -50 219 -51 193 8 217 43 19 50 25 45 43 -4 11 -8 22
-10 24 -2 2 -382 -86 -401 -93 -1 -1 1 -13 4 -27 4 -24 7 -25 58 -21 44 4 55
1 63 -14 16 -30 94 -326 87 -332 -11 -12 -143 71 -317 201 -74 55 -110 88
-117 109 -8 23 -15 29 -28 24 -16 -7 -139 -38 -194 -50 -22 -5 -25 -10 -21
-31 4 -25 7 -26 56 -20 47 6 58 3 126 -32 41 -22 128 -74 192 -117 106 -70
116 -79 109 -99 -33 -83 -152 -349 -193 -430 -40 -77 -58 -102 -83 -114 -25
-12 -31 -20 -27 -39 2 -13 7 -24 9 -24 3 0 63 14 134 32 l128 31 87 216 c90
223 127 295 147 288 17 -5 78 -263 75 -317 -3 -43 -5 -46 -45 -60 -42 -14 -52
-31 -35 -57 7 -12 78 3 398 83 7 1 9 14 7 28 -5 25 -7 26 -59 20 -65 -8 -59
-17 -113 194 -43 165 -41 179 16 148 15 -8 110 -85 210 -170 100 -86 187 -156
193 -156 7 0 42 9 78 19 37 11 92 25 123 31 52 10 56 13 51 35 -4 21 -10 25
-41 25 -29 0 -55 12 -112 51 -105 73 -390 301 -397 319 -3 9 127 245 169 306
37 54 81 91 119 99 30 7 36 19 24 49 -7 19 -4 20 -134 -15z"/>
<path d="M14694 12124 c-4 -15 -3 -29 2 -31 5 -2 23 -12 40 -22 44 -27 50 -63
105 -628 l31 -322 -21 -29 c-42 -60 -99 -102 -137 -102 -42 0 -89 23 -104 50
-6 11 -16 20 -23 20 -15 0 -70 -108 -61 -121 3 -5 24 -19 46 -30 50 -26 137
-28 190 -6 62 26 117 86 416 451 158 193 310 375 338 404 49 51 52 53 92 46
27 -4 42 -3 42 4 0 6 3 17 6 26 4 11 -5 18 -38 26 -23 6 -90 27 -146 46 -57
19 -107 32 -112 29 -4 -2 -10 -14 -13 -25 -4 -16 3 -24 38 -39 23 -10 46 -24
50 -31 4 -7 -8 -33 -28 -63 -50 -73 -360 -458 -364 -453 -3 3 -42 395 -56 565
-7 88 -3 93 62 89 53 -3 56 -2 56 21 0 22 -9 27 -99 52 -83 24 -249 78 -293
96 -7 2 -15 -7 -19 -23z"/>
<path d="M3170 11299 c-101 -27 -261 -106 -335 -166 -115 -93 -211 -244 -252
-394 -17 -64 -23 -71 -180 -235 l-162 -169 24 66 c73 201 79 487 15 654 l-12
30 -67 -72 c-138 -146 -261 -359 -302 -522 -30 -120 -24 -284 15 -391 15 -41
29 -82 32 -90 2 -8 -37 -66 -88 -131 -51 -63 -104 -130 -118 -148 l-25 -33 3
104 c6 170 -43 316 -143 426 l-42 47 -52 -104 c-67 -132 -117 -282 -138 -411
-21 -131 -9 -267 38 -402 l30 -90 -54 -86 c-31 -48 -81 -130 -112 -182 -46
-76 -56 -88 -51 -60 4 19 9 98 12 175 5 116 3 156 -14 235 -22 107 -78 253
-96 247 -38 -11 -196 -300 -241 -441 -72 -225 -50 -451 60 -622 l43 -68 -25
-55 c-47 -103 -163 -382 -164 -394 -1 -7 -7 36 -14 94 -23 188 -68 320 -154
452 -64 98 -76 106 -94 70 -8 -15 -29 -70 -46 -120 -134 -391 -97 -717 103
-926 l46 -47 -34 -138 c-19 -75 -40 -163 -46 -196 l-12 -59 -23 57 c-58 143
-154 252 -284 320 -40 21 -75 36 -77 33 -10 -10 -5 -354 6 -422 18 -116 49
-216 91 -294 44 -82 120 -182 174 -229 l34 -30 -6 -252 -6 -252 -34 72 c-45
99 -103 182 -182 263 -70 73 -188 164 -198 153 -4 -3 -6 -81 -6 -174 0 -326
66 -536 218 -701 58 -62 152 -129 221 -156 l40 -16 32 -162 c18 -89 35 -173
39 -187 4 -19 -2 -15 -27 20 -47 63 -124 138 -200 195 -63 46 -211 125 -236
125 -15 0 -11 -44 17 -187 26 -132 66 -249 125 -365 67 -130 192 -257 312
-316 46 -23 110 -47 142 -54 l58 -12 28 -70 c15 -39 58 -136 95 -215 l69 -143
-35 26 c-19 14 -50 37 -67 50 -92 67 -296 146 -411 158 -39 5 -47 3 -47 -11 0
-22 108 -242 153 -312 169 -263 393 -409 628 -409 l67 0 90 -127 c50 -71 104
-146 121 -169 l30 -41 -94 47 c-130 65 -233 92 -377 98 -65 2 -118 1 -118 -3
0 -12 48 -92 88 -150 156 -219 331 -365 512 -425 77 -26 260 -38 330 -21 l45
10 147 -147 c81 -80 146 -147 145 -148 -1 -1 -41 11 -89 27 -122 41 -268 56
-399 42 -56 -6 -105 -15 -110 -20 -11 -11 98 -137 191 -220 263 -233 529 -311
792 -233 l76 22 59 -44 c32 -25 115 -85 184 -134 l125 -89 -85 -1 c-106 0
-176 -16 -266 -60 -64 -31 -176 -112 -183 -132 -4 -12 176 -95 283 -131 241
-81 450 -79 661 5 l62 25 148 -81 c82 -45 150 -82 151 -83 1 -1 -65 -3 -145
-3 -162 -1 -236 -16 -376 -74 -109 -46 -110 -50 -24 -103 105 -66 269 -142
373 -173 119 -35 317 -45 415 -20 76 20 181 67 228 103 32 24 35 25 70 10 21
-8 123 -49 227 -92 105 -42 194 -80 198 -85 5 -4 -11 -10 -34 -14 -59 -9 -133
-42 -210 -93 -76 -49 -123 -98 -180 -186 l-40 -62 25 -6 c14 -4 71 -12 126
-18 327 -36 568 18 760 170 l49 39 203 -59 c112 -33 230 -67 263 -77 l60 -18
-70 -8 c-142 -17 -294 -72 -417 -151 -62 -40 -138 -104 -138 -118 0 -12 175
-64 285 -86 123 -24 355 -24 445 0 117 31 223 91 308 174 l77 75 190 -36 c105
-20 211 -39 238 -42 54 -8 74 -24 29 -24 -51 0 -216 -47 -296 -84 -43 -19
-107 -55 -144 -80 -71 -47 -160 -131 -150 -142 10 -9 141 -42 242 -60 134 -25
358 -22 459 5 152 40 297 136 383 252 36 50 38 51 78 46 23 -3 121 -14 219
-23 l179 -18 -94 -31 c-107 -36 -157 -60 -248 -121 -83 -55 -189 -161 -169
-168 173 -60 515 -79 671 -38 175 47 337 161 414 292 l17 28 421 0 c232 0 528
5 658 12 l238 12 312 -167 311 -167 36 17 c19 9 161 85 315 169 l281 152 95
-8 c52 -4 354 -10 672 -14 l576 -7 31 -47 c53 -82 152 -165 254 -214 150 -72
306 -95 506 -76 101 9 293 44 313 57 28 16 -142 160 -263 223 -42 22 -116 53
-163 68 l-86 28 221 23 c122 12 222 21 223 19 80 -141 254 -262 436 -303 94
-22 309 -22 430 -2 108 19 250 57 250 67 0 5 -20 27 -44 50 -128 123 -309 210
-501 244 -81 14 -83 19 -10 31 22 3 126 22 230 41 l190 36 76 -74 c83 -82 191
-143 309 -174 98 -27 332 -24 468 5 119 25 262 69 262 79 0 12 -70 76 -120
109 -120 81 -294 146 -425 159 -36 4 -65 10 -65 13 0 3 39 16 88 29 48 12 162
45 254 72 l167 50 63 -47 c75 -57 194 -117 275 -138 112 -30 270 -40 425 -27
79 7 155 15 170 18 l28 6 -28 52 c-15 28 -61 85 -102 126 -83 83 -179 138
-285 164 l-60 14 35 15 c19 8 109 45 200 82 91 37 181 74 201 82 35 14 37 14
98 -26 124 -80 234 -106 409 -98 141 6 249 35 402 108 133 63 252 137 244 151
-12 20 -153 78 -241 100 -69 17 -118 22 -230 23 -78 0 -141 1 -140 2 8 8 299
163 306 163 5 0 34 -12 65 -26 73 -33 222 -64 312 -64 95 0 228 24 339 61 103
35 285 118 285 130 0 16 -115 100 -185 135 -80 40 -221 69 -297 61 -27 -2 -48
-3 -48 -1 0 2 46 36 103 75 56 40 137 99 179 131 42 32 82 58 88 58 6 0 38 -9
72 -21 33 -11 98 -23 144 -26 213 -15 412 63 629 247 89 75 219 220 208 231
-12 12 -131 29 -205 29 -122 0 -255 -26 -383 -75 -11 -4 49 60 133 144 l153
151 42 -10 c70 -16 197 -12 283 10 166 42 328 152 466 319 74 90 178 244 178
264 0 6 -50 8 -117 5 -145 -6 -248 -33 -379 -98 l-94 -47 35 46 c19 25 74 101
121 169 l86 122 67 0 c298 0 569 229 746 631 47 107 46 110 -12 102 -135 -17
-330 -98 -442 -182 -30 -23 -56 -39 -58 -37 -2 2 20 52 50 112 29 60 71 152
92 206 l40 96 57 12 c73 14 198 77 264 132 135 113 230 274 289 491 20 75 55
258 55 290 0 15 -31 5 -116 -37 -113 -57 -233 -153 -308 -247 -38 -48 -57 -65
-53 -49 4 14 22 97 40 186 l32 161 76 37 c198 96 337 301 386 570 17 93 25
427 11 441 -11 12 -127 -77 -199 -151 -78 -82 -140 -171 -184 -266 l-32 -70
-5 252 -5 252 43 40 c103 95 196 255 233 400 28 109 43 293 35 426 -4 61 -9
112 -11 112 -3 0 -37 -17 -77 -37 -107 -57 -202 -156 -259 -272 l-45 -92 -17
78 c-9 43 -29 128 -45 189 l-29 111 48 52 c64 69 116 159 148 256 25 73 27 93
27 240 0 134 -3 175 -23 255 -25 100 -73 246 -98 293 -14 28 -15 28 -35 10
-33 -30 -117 -173 -148 -254 -29 -75 -52 -180 -67 -309 l-8 -65 -29 75 c-16
41 -59 143 -96 227 l-67 151 30 44 c82 120 112 228 111 398 -1 154 -26 247
-114 425 -57 118 -145 255 -166 262 -13 4 -60 -104 -86 -200 -25 -92 -35 -295
-19 -396 6 -40 10 -76 7 -78 -2 -3 -12 10 -22 29 -9 18 -57 97 -105 175 l-89
142 30 88 c59 176 64 331 16 513 -27 105 -91 266 -139 349 l-31 55 -43 -48
c-96 -106 -147 -260 -141 -423 l4 -104 -21 28 c-11 15 -64 83 -118 151 l-99
123 21 49 c52 120 66 291 37 431 -34 161 -160 379 -315 545 l-54 57 -12 -24
c-27 -51 -48 -183 -48 -309 0 -130 17 -223 63 -355 l20 -59 -157 163 -158 163
-35 102 c-51 147 -100 228 -194 321 -65 65 -101 91 -182 132 -91 47 -251 103
-293 103 -16 0 -17 -7 -9 -67 35 -266 165 -483 361 -601 31 -19 93 -50 139
-69 76 -32 94 -46 206 -157 67 -66 122 -124 122 -127 0 -4 -24 2 -52 13 -75
29 -259 37 -348 14 -73 -19 -175 -66 -174 -81 2 -36 300 -245 423 -296 136
-57 163 -62 346 -63 l170 -1 107 -134 c58 -73 120 -153 138 -177 l32 -45 -64
41 c-170 111 -322 159 -520 167 -78 3 -138 2 -138 -3 0 -31 143 -217 242 -316
129 -128 285 -218 429 -249 33 -7 103 -10 180 -7 l126 6 25 -42 c110 -177 177
-290 175 -293 -2 -1 -37 15 -78 37 -103 55 -196 74 -323 67 -101 -6 -206 -33
-214 -55 -2 -6 54 -69 125 -140 226 -226 394 -315 628 -331 l90 -6 24 -50 c35
-74 120 -271 147 -344 l25 -63 -57 51 c-72 64 -191 126 -280 147 -67 15 -244
17 -259 3 -9 -10 44 -112 116 -220 38 -57 104 -135 168 -200 95 -95 116 -110
211 -156 58 -29 138 -59 178 -69 l72 -17 15 -51 c23 -81 62 -253 80 -351 8
-49 18 -101 21 -115 3 -14 -23 18 -58 70 -117 176 -272 310 -448 387 -97 43
-102 42 -95 -4 33 -191 104 -396 183 -523 93 -152 234 -268 380 -314 41 -13
78 -30 82 -37 8 -15 15 -292 12 -464 l-3 -110 -38 72 c-76 144 -166 233 -297
295 -52 24 -183 61 -192 53 -7 -6 42 -227 69 -308 77 -236 187 -392 357 -505
28 -19 52 -36 52 -38 0 -38 -103 -482 -119 -512 -4 -7 -13 17 -20 55 -32 177
-158 348 -318 431 -45 23 -86 42 -92 42 -7 0 -11 -40 -11 -123 0 -342 77 -570
254 -751 l53 -55 -58 -135 c-31 -74 -90 -199 -131 -278 l-73 -143 -6 135 c-5
112 -10 146 -32 202 -45 116 -124 222 -214 286 l-33 23 -11 -28 c-20 -52 -58
-227 -69 -313 -28 -233 10 -432 116 -596 l36 -57 -53 -76 c-50 -72 -214 -289
-252 -335 l-19 -21 7 30 c16 79 17 251 1 315 -24 95 -77 197 -138 264 l-54 59
-38 -84 c-147 -321 -174 -602 -81 -832 18 -43 22 -64 15 -77 -9 -17 -274 -272
-354 -341 -30 -26 -38 -29 -32 -14 41 103 49 138 53 240 6 131 -8 203 -63 312
-33 66 -69 112 -78 102 -26 -28 -129 -204 -171 -292 -95 -197 -122 -359 -91
-547 10 -56 14 -106 9 -110 -45 -39 -401 -290 -459 -323 -7 -4 13 30 44 76
122 182 171 325 179 526 l6 134 -49 -28 c-142 -82 -343 -262 -423 -378 -93
-135 -137 -292 -128 -453 l6 -103 -107 -59 c-59 -33 -149 -81 -200 -106 l-93
-47 39 53 c49 66 85 136 108 213 31 103 21 312 -18 388 -8 16 -15 13 -67 -28
-81 -64 -239 -228 -294 -306 -88 -125 -140 -269 -153 -429 l-7 -78 -135 -57
c-122 -51 -411 -165 -420 -165 -2 0 18 16 45 36 192 145 313 304 378 494 34
100 34 104 -14 96 -65 -10 -220 -64 -318 -111 -286 -135 -457 -345 -482 -590
-7 -70 21 -56 -271 -139 -274 -79 -255 -79 -174 6 77 81 134 180 158 274 17
66 22 244 7 244 -5 0 -60 -26 -122 -58 -204 -104 -347 -214 -435 -338 -48 -67
-118 -209 -129 -261 -3 -17 -12 -36 -18 -41 -10 -8 -433 -92 -464 -92 -7 0 20
33 60 73 77 77 132 169 161 267 21 69 33 230 18 230 -18 0 -174 -70 -259 -116
-223 -121 -372 -278 -444 -466 -18 -49 -25 -57 -53 -62 -27 -5 -320 -34 -521
-52 l-70 -6 62 41 c137 93 240 247 268 406 14 81 19 155 10 155 -3 0 -47 -16
-98 -36 -330 -130 -524 -292 -624 -520 l-26 -61 -75 -7 c-179 -15 -878 -2
-1223 23 l-106 7 -280 152 c-153 84 -282 152 -286 152 -4 0 -136 -69 -294
-154 l-288 -154 -185 -12 c-235 -14 -978 -25 -1090 -15 l-85 7 -39 83 c-54
117 -138 220 -243 300 -89 66 -273 164 -395 209 -63 23 -66 24 -71 6 -6 -24 7
-142 23 -200 33 -122 138 -263 253 -341 l62 -41 -80 6 c-154 13 -490 47 -516
52 -20 4 -29 16 -43 53 -63 175 -207 334 -410 454 -93 54 -284 139 -296 132
-14 -9 -12 -76 5 -170 22 -121 80 -231 172 -323 l75 -75 -44 7 c-125 19 -425
80 -435 89 -7 5 -13 16 -13 24 0 25 -51 145 -93 218 -50 87 -175 213 -282 285
-75 51 -297 170 -316 170 -15 0 -10 -170 6 -239 23 -95 80 -196 159 -279 63
-67 67 -73 40 -66 -53 13 -308 85 -391 111 -81 25 -83 26 -88 62 -18 118 -29
155 -70 237 -77 158 -216 283 -418 379 -99 47 -253 101 -319 112 l-40 6 7 -34
c12 -56 54 -160 91 -226 69 -123 165 -229 308 -336 27 -20 47 -37 45 -37 -10
0 -295 112 -421 165 l-135 57 -6 80 c-12 153 -60 290 -148 419 -51 75 -215
247 -299 314 l-60 46 -10 -27 c-22 -57 -32 -123 -33 -209 -1 -143 32 -249 118
-372 25 -36 42 -63 38 -61 -27 12 -175 90 -274 144 l-117 64 5 108 c8 168 -33
310 -129 449 -79 116 -284 300 -422 379 l-49 28 6 -130 c8 -205 59 -354 181
-532 31 -46 51 -80 44 -76 -63 37 -324 220 -451 316 -17 13 -17 18 -1 108 33
193 2 377 -100 580 -55 111 -154 270 -168 270 -15 0 -82 -115 -107 -185 -23
-62 -26 -86 -26 -200 0 -115 4 -139 27 -205 14 -41 25 -76 24 -77 -5 -5 -362
335 -378 359 -16 24 -15 29 7 85 93 230 67 516 -77 824 l-41 90 -34 -33 c-51
-50 -112 -149 -140 -230 -33 -93 -42 -241 -20 -342 13 -63 13 -67 -2 -49 -94
118 -190 245 -243 323 l-65 95 47 82 c85 149 116 284 107 473 -8 160 -65 440
-90 440 -5 0 -46 -37 -91 -82 -84 -85 -141 -176 -167 -268 -7 -25 -15 -101
-18 -170 l-6 -125 -96 195 c-53 107 -112 232 -130 277 l-33 82 50 53 c181 194
254 407 254 744 l0 135 -22 -7 c-89 -27 -217 -120 -277 -201 -61 -82 -90 -143
-116 -246 -14 -57 -25 -83 -28 -71 -34 113 -83 327 -110 480 -6 30 -2 34 51
70 219 145 352 391 417 767 6 36 5 37 -25 37 -46 0 -147 -37 -221 -80 -90 -53
-188 -159 -236 -256 l-38 -78 -3 262 c-1 145 1 277 6 294 7 28 15 34 57 44 89
23 189 81 269 155 121 113 200 248 264 449 31 97 67 268 59 276 -8 8 -135 -44
-200 -82 -139 -81 -247 -188 -349 -344 -27 -41 -51 -76 -53 -78 -6 -7 38 221
66 338 52 219 38 194 123 214 81 19 209 77 284 128 110 75 262 262 365 450
l37 67 -46 7 c-175 26 -377 -39 -515 -167 -27 -25 -49 -44 -49 -42 0 11 109
271 150 359 l47 101 99 6 c156 9 295 62 441 168 75 54 306 286 300 302 -9 28
-119 51 -247 51 -141 1 -210 -16 -315 -79 -31 -19 -55 -29 -52 -21 8 21 175
291 195 315 16 20 22 21 97 13 258 -29 496 80 709 324 92 105 179 231 170 245
-5 8 -44 10 -133 6 -192 -8 -320 -48 -492 -152 l-88 -53 89 117 c49 64 111
143 138 176 l49 60 164 0 c196 0 243 11 404 90 106 53 288 180 349 243 l29 31
-34 20 c-81 50 -156 66 -299 66 -110 -1 -146 -4 -192 -21 l-57 -21 19 26 c10
14 65 72 122 127 91 90 113 106 186 137 113 48 184 92 255 157 133 121 220
309 251 543 6 44 4 45 -104 16z"/>
<path d="M7940 10823 c0 -8 13 -13 33 -13 18 0 38 -5 45 -12 9 -9 12 -89 12
-300 0 -274 -1 -288 -19 -298 -11 -5 -31 -10 -45 -10 -14 0 -26 -4 -26 -10 0
-6 52 -10 135 -10 131 0 175 11 96 24 -22 3 -41 13 -45 22 -9 23 -7 262 2 268
4 2 84 -67 177 -154 l170 -159 68 -1 c66 0 88 13 48 28 -20 7 -371 330 -371
341 0 6 216 204 265 243 14 11 44 22 65 25 22 3 40 11 40 17 0 7 -29 11 -85
11 -74 0 -85 -2 -85 -17 0 -20 -269 -298 -288 -298 -9 0 -12 35 -12 124 0 68
3 132 6 140 4 9 23 19 45 22 21 4 39 12 39 18 0 8 -42 11 -135 11 -101 0 -135
-3 -135 -12z"/>
<path d="M8840 10823 c0 -6 19 -16 43 -20 l42 -9 7 -54 c8 -73 8 -433 0 -490
-7 -42 -10 -46 -44 -54 -21 -5 -38 -13 -38 -18 0 -11 494 -18 504 -7 2 2 6 37
8 77 4 55 2 72 -8 72 -12 0 -34 -56 -34 -87 0 -21 -118 -37 -215 -28 l-75 7 0
139 0 139 91 0 c50 0 99 -5 109 -10 11 -6 22 -26 26 -45 12 -68 24 -34 24 70
0 108 -10 133 -26 68 l-9 -38 -107 -3 -108 -3 0 129 c0 126 1 130 23 136 33 9
157 7 201 -4 45 -10 56 -23 56 -67 0 -21 5 -33 14 -33 9 0 15 20 19 67 3 38 3
71 1 75 -3 4 -117 6 -254 5 -186 -1 -250 -5 -250 -14z"/>
<path d="M9620 10823 c0 -7 12 -13 26 -13 14 0 34 -5 45 -10 18 -10 19 -24 19
-293 0 -155 -4 -287 -8 -294 -4 -6 -24 -14 -45 -18 -75 -14 -34 -25 98 -25
135 0 167 8 98 26 -47 11 -50 24 -52 187 l-1 117 200 0 200 0 -1 -122 c-1
-162 -4 -171 -57 -182 -67 -15 -49 -26 43 -26 119 0 165 -26 165 -94 0 -16 6
-26 15 -26 10 0 15 10 15 33 0 17 3 49 6 69 6 36 6 37 -32 44 -22 3 -45 11
-51 17 -18 13 -19 567 -1 585 7 7 27 12 45 12 20 0 33 5 33 13 0 9 -35 12
-140 12 -105 0 -140 -3 -140 -12 0 -8 13 -13 34 -13 53 0 61 -18 65 -152 l3
-118 -202 0 -202 0 4 125 c3 136 7 145 61 145 15 0 27 6 27 13 0 9 -34 12
-135 12 -101 0 -135 -3 -135 -12z"/>
<path d="M10620 10823 c0 -6 18 -14 41 -18 30 -5 43 -13 50 -32 12 -33 12
-529 -1 -553 -5 -10 -23 -21 -40 -25 -70 -15 -20 -25 138 -27 202 -4 321 -2
326 3 2 2 7 37 11 77 6 61 5 72 -8 72 -10 0 -18 -14 -22 -40 -4 -22 -13 -47
-20 -54 -19 -18 -128 -29 -214 -20 l-71 7 0 138 0 139 99 0 c111 0 131 -9 131
-61 0 -19 5 -29 15 -29 12 0 15 18 15 105 0 87 -3 105 -15 105 -10 0 -15 -10
-15 -28 0 -46 -15 -52 -127 -52 l-103 0 0 129 0 129 31 6 c48 9 143 7 199 -5
l50 -11 0 -44 c0 -30 4 -44 13 -44 18 0 39 132 23 142 -19 13 -506 4 -506 -9z"/>
<path d="M11400 10823 c0 -8 14 -13 34 -13 66 0 66 -1 66 -301 0 -167 -4 -278
-10 -290 -7 -11 -26 -21 -50 -25 -112 -18 5 -24 475 -24 283 0 515 4 515 8 0
5 -19 12 -42 18 l-43 9 -3 290 c-3 320 -3 315 60 315 16 0 28 5 28 13 0 9 -35
12 -140 12 -105 0 -140 -3 -140 -12 0 -8 12 -13 28 -13 16 0 37 -6 48 -14 18
-13 19 -30 22 -248 2 -128 1 -257 -3 -286 l-7 -53 -136 3 -137 3 -2 270 c-3
302 0 318 55 323 17 2 32 9 32 15 0 9 -38 12 -135 12 -101 0 -135 -3 -135 -12
0 -8 13 -13 29 -13 60 0 61 -3 61 -316 l0 -284 -140 0 -140 0 0 284 c0 313 1
316 61 316 16 0 29 5 29 13 0 9 -35 12 -140 12 -105 0 -140 -3 -140 -12z"/>
<path d="M10193 9388 l-53 -11 0 -608 0 -608 -33 -16 c-68 -32 -90 -127 -42
-184 53 -62 137 -62 190 0 48 57 27 151 -40 183 l-35 17 2 392 3 392 59 9 c75
12 157 -4 211 -42 32 -23 51 -51 95 -140 30 -61 66 -123 80 -138 40 -42 97
-64 172 -64 105 0 98 -16 98 204 l0 193 -61 17 c-75 21 -99 44 -159 157 -54
102 -140 191 -219 228 -64 29 -177 37 -268 19z"/>
<path d="M2320 8065 l0 -114 140 -216 c113 -175 163 -241 260 -347 l120 -131
0 -133 0 -133 113 -3 112 -3 5 -170 5 -170 128 -274 127 -274 0 -724 0 -723
-295 0 -294 0 -186 -229 c-162 -202 -185 -234 -185 -265 l0 -36 7790 0 7790 0
0 36 c0 31 -23 63 -185 265 l-186 229 -294 0 -295 0 0 723 0 723 127 274 128
275 5 170 5 170 113 3 112 3 0 132 0 133 123 135 c99 108 148 174 255 340
l132 206 0 121 0 122 -3700 0 -3700 0 0 -190 0 -190 -430 0 -430 0 0 190 0
190 -3705 0 -3705 0 0 -115z m15299 -582 c-19 -21 -70 -76 -112 -122 l-77 -84
0 -119 0 -118 -115 0 -115 0 0 -181 0 -180 -145 -289 -145 -289 0 -726 0 -725
-35 0 -35 0 0 355 0 355 -225 0 -225 0 0 -355 0 -355 -95 0 -95 0 0 165 0 165
-95 0 -95 0 0 -165 0 -165 -150 0 -150 0 0 165 0 165 -95 0 -95 0 0 -165 0
-165 -95 0 -95 0 0 165 0 165 -90 0 -90 0 0 -165 0 -165 -155 0 -155 0 0 165
0 165 -95 0 -95 0 0 -165 0 -165 -90 0 -90 0 0 165 0 165 -95 0 -95 0 0 -165
0 -165 -130 0 -130 0 0 165 0 165 -95 0 -95 0 0 -165 0 -165 -95 0 -95 0 0
165 0 165 -95 0 -95 0 0 -165 0 -165 -150 0 -150 0 0 165 0 165 -95 0 -95 0 0
-165 0 -165 -75 0 -75 0 0 165 0 165 -90 0 -90 0 0 -165 0 -165 -135 0 -135 0
0 165 0 165 -95 0 -95 0 0 -165 0 -165 -90 0 -90 0 0 355 0 355 -345 0 -345 0
0 -355 0 -355 -90 0 -90 0 0 355 0 355 -95 0 -95 0 0 -355 0 -355 -75 0 -75 0
0 355 0 355 -620 0 -620 0 0 -355 0 -355 -75 0 -75 0 0 355 0 355 -95 0 -95 0
0 -355 0 -355 -90 0 -90 0 0 355 0 355 -345 0 -345 0 0 -355 0 -355 -90 0 -90
0 0 165 0 165 -95 0 -95 0 0 -165 0 -165 -135 0 -135 0 0 165 0 165 -90 0 -90
0 0 -165 0 -165 -75 0 -75 0 0 165 0 165 -95 0 -95 0 0 -165 0 -165 -150 0
-150 0 0 165 0 165 -95 0 -95 0 0 -165 0 -165 -95 0 -95 0 0 165 0 165 -95 0
-95 0 0 -165 0 -165 -130 0 -130 0 0 165 0 165 -95 0 -95 0 0 -165 0 -165 -90
0 -90 0 0 165 0 165 -95 0 -95 0 0 -165 0 -165 -155 0 -155 0 0 165 0 165 -90
0 -90 0 0 -165 0 -165 -95 0 -95 0 0 165 0 165 -95 0 -95 0 0 -165 0 -165
-150 0 -150 0 0 165 0 165 -95 0 -95 0 0 -165 0 -165 -95 0 -95 0 0 355 0 355
-225 0 -225 0 0 -355 0 -355 -35 0 -35 0 0 726 0 725 -145 289 -145 289 0 181
0 180 -115 0 -115 0 0 118 0 119 -77 84 c-42 46 -93 101 -112 122 l-35 37
7494 0 7494 0 -35 -37z m-5305 -2909 c18 -47 150 -44 -2154 -44 -2304 0 -2172
-3 -2154 44 6 15 205 16 2154 16 1949 0 2148 -1 2154 -16z m30 -120 c18 -47
153 -44 -2184 -44 -2337 0 -2202 -3 -2184 44 6 15 207 16 2184 16 1977 0 2178
-1 2184 -16z m30 -120 c18 -47 155 -44 -2214 -44 -1221 0 -2220 3 -2220 8 0 4
3 17 6 30 l6 22 2208 0 c2004 0 2208 -1 2214 -16z m26 -111 c0 -5 3 -18 6 -30
l6 -23 -2251 0 c-1238 0 -2251 3 -2251 8 0 4 3 17 6 30 l6 22 2239 0 c1232 0
2239 -3 2239 -7z"/>
<path d="M2999 7413 c28 -32 81 -91 118 -131 l68 -73 82 3 82 3 -115 128 -115
127 -86 0 -85 0 51 -57z"/>
<path d="M3290 7408 c29 -35 78 -93 109 -130 l56 -67 84 0 c98 -1 102 -18 -34
148 l-90 110 -88 1 -89 0 52 -62z"/>
<path d="M3522 7459 c2 -6 46 -64 98 -130 l95 -118 83 -1 c67 0 81 3 75 14 -4
7 -48 66 -98 130 l-89 116 -84 0 c-56 0 -82 -4 -80 -11z"/>
<path d="M3792 7459 c2 -6 46 -64 98 -129 l95 -119 83 0 c64 -1 81 2 76 12 -4
6 -48 65 -97 130 l-90 117 -84 0 c-56 0 -83 -4 -81 -11z"/>
<path d="M4089 7453 c6 -10 48 -67 93 -128 l83 -110 84 -3 c45 -2 81 1 79 6
-1 5 -41 63 -88 130 l-85 121 -88 1 c-81 0 -87 -1 -78 -17z"/>
<path d="M4373 7457 c3 -7 39 -66 82 -130 l77 -117 79 0 c43 0 79 3 79 7 0 4
-35 62 -77 130 l-78 123 -84 0 c-64 0 -82 -3 -78 -13z"/>
<path d="M4640 7461 c0 -5 36 -64 80 -130 l80 -121 80 0 c44 0 80 3 79 8 0 4
-35 61 -78 127 l-77 120 -82 3 c-47 2 -82 -1 -82 -7z"/>
<path d="M4920 7466 c0 -3 34 -61 76 -130 l75 -126 80 0 c43 0 79 3 79 6 0 4
-32 62 -71 130 l-71 124 -84 0 c-46 0 -84 -2 -84 -4z"/>
<path d="M5205 7428 c14 -24 49 -82 77 -130 l52 -88 84 0 c46 0 81 3 79 8 -2
4 -36 62 -76 130 l-72 122 -85 0 -85 0 26 -42z"/>
<path d="M5470 7461 c0 -5 33 -64 72 -130 l73 -121 83 0 83 0 -32 58 c-18 31
-51 89 -74 127 l-41 70 -82 3 c-48 2 -82 -1 -82 -7z"/>
<path d="M5762 7462 c2 -5 28 -63 58 -130 l55 -122 83 0 c45 0 82 2 82 3 0 6
-104 230 -113 245 -9 14 -171 18 -165 4z"/>
<path d="M6040 7462 c0 -5 24 -63 54 -128 l54 -119 81 -3 c47 -2 81 1 81 7 0
5 -25 62 -55 128 l-54 118 -81 3 c-44 2 -80 -1 -80 -6z"/>
<path d="M6310 7462 c0 -5 24 -63 54 -128 l54 -119 81 -3 c45 -2 81 1 81 6 0
5 -25 62 -55 128 l-55 119 -80 3 c-44 2 -80 -1 -80 -6z"/>
<path d="M6600 7461 c0 -5 12 -40 26 -77 14 -38 35 -93 46 -121 l19 -53 80 0
c56 0 79 4 79 13 0 6 -21 65 -47 129 l-48 118 -77 0 c-43 0 -78 -4 -78 -9z"/>
<path d="M6870 7468 c0 -2 21 -59 48 -128 l47 -125 83 -3 c78 -3 83 -2 78 16
-4 10 -26 68 -50 128 l-44 109 -81 3 c-45 2 -81 1 -81 0z"/>
<path d="M7170 7467 c0 -4 37 -194 46 -234 4 -22 9 -23 85 -23 l81 0 -7 38
c-3 20 -16 78 -29 127 l-22 90 -77 3 c-42 2 -77 1 -77 -1z"/>
<path d="M7440 7454 c0 -9 10 -67 21 -130 l22 -114 85 0 c63 0 83 3 79 13 -2
6 -17 65 -32 130 l-27 117 -74 0 c-61 0 -74 -3 -74 -16z"/>
<path d="M7725 7433 c7 -50 25 -205 25 -215 0 -5 36 -8 80 -8 l80 0 0 28 c0
26 -14 133 -25 200 l-6 32 -80 0 -79 0 5 -37z"/>
<path d="M7983 7448 c3 -13 13 -71 23 -130 l17 -108 83 0 83 0 -6 33 c-3 17
-12 75 -21 127 l-17 95 -84 3 c-82 3 -83 3 -78 -20z"/>
<path d="M8240 7467 c0 -2 11 -59 25 -127 14 -68 25 -124 25 -126 0 -2 38 -4
85 -4 l85 0 -7 28 c-3 15 -16 72 -27 127 l-21 100 -82 3 c-46 2 -83 1 -83 -1z"/>
<path d="M8545 7443 c6 -35 25 -204 25 -220 0 -10 24 -13 86 -13 77 0 85 2 80
18 -2 9 -10 60 -16 112 -17 140 -9 130 -100 130 l-79 0 4 -27z"/>
<path d="M8820 7463 c0 -14 20 -187 26 -220 l5 -33 79 0 c93 0 88 -13 65 145
-8 55 -15 103 -15 108 0 4 -36 7 -80 7 -44 0 -80 -3 -80 -7z"/>
<path d="M9105 7348 c4 -68 9 -126 12 -130 2 -5 40 -8 85 -8 l80 0 -6 65 c-3
36 -9 94 -12 130 l-6 65 -80 0 -80 0 7 -122z"/>
<path d="M9394 7378 c3 -50 6 -108 6 -130 l0 -38 86 0 86 0 -6 53 c-3 28 -8
87 -12 130 l-6 77 -81 0 -80 0 7 -92z"/>
<path d="M9664 7409 c3 -34 6 -93 6 -130 l0 -69 85 0 84 0 -5 118 c-3 64 -7
123 -10 130 -2 8 -28 12 -85 12 l-82 0 7 -61z"/>
<path d="M9937 7373 c2 -54 6 -113 9 -130 l5 -33 81 0 81 0 -6 83 c-4 45 -7
103 -7 130 l0 47 -84 0 -83 0 4 -97z"/>
<path d="M10220 7417 c0 -30 -3 -88 -6 -130 l-7 -77 81 0 c96 0 88 -12 95 153
l5 107 -84 0 -84 0 0 -53z"/>
<path d="M10496 7448 c-3 -13 -7 -71 -10 -130 l-5 -108 85 0 84 0 0 53 c0 30
3 88 6 130 l7 77 -81 0 c-77 0 -82 -1 -86 -22z"/>
<path d="M10766 7388 c-4 -46 -9 -104 -12 -130 l-6 -48 86 0 86 0 0 33 c0 17
3 76 7 130 l6 97 -80 0 -81 0 -6 -82z"/>
<path d="M11056 7398 c-4 -40 -9 -99 -12 -130 l-6 -58 86 0 86 0 0 38 c0 22 3
80 6 130 l7 92 -80 0 -81 0 -6 -72z"/>
<path d="M11331 7393 c-6 -43 -13 -102 -17 -130 l-7 -53 82 0 c76 0 81 1 85
23 5 23 26 207 26 226 0 7 -29 11 -79 11 l-79 0 -11 -77z"/>
<path d="M11616 7448 c-9 -45 -26 -179 -26 -208 l0 -30 79 0 79 0 5 43 c4 23
9 74 12 112 4 39 9 78 11 88 5 15 -3 17 -75 17 -76 0 -81 -1 -85 -22z"/>
<path d="M11915 7458 c-8 -23 -45 -210 -45 -229 0 -17 8 -19 80 -19 44 0 80 2
80 5 0 3 11 57 25 121 14 64 25 120 25 125 0 15 -160 11 -165 -3z"/>
<path d="M12175 7458 c-2 -7 -11 -56 -20 -108 -8 -52 -18 -105 -20 -117 -5
-22 -3 -23 80 -23 47 0 85 3 85 8 0 10 29 191 36 225 l6 27 -82 0 c-55 0 -82
-4 -85 -12z"/>
<path d="M12436 7438 c-15 -91 -26 -180 -26 -202 0 -26 1 -26 79 -26 l79 0 6
38 c3 20 8 62 11 92 3 30 8 72 11 93 l6 37 -81 0 -80 0 -5 -32z"/>
<path d="M12706 7353 c-16 -65 -31 -124 -34 -130 -3 -10 17 -13 81 -13 l85 0
21 113 c30 159 34 147 -52 147 l-73 0 -28 -117z"/>
<path d="M12995 7458 c-7 -20 -55 -229 -55 -239 0 -5 36 -9 79 -9 91 0 82 -11
106 125 9 50 19 100 22 113 5 21 3 22 -71 22 -52 0 -78 -4 -81 -12z"/>
<path d="M13281 7448 c-5 -13 -27 -69 -50 -126 -23 -56 -41 -105 -41 -108 0
-2 37 -4 82 -2 l83 3 47 125 c27 69 48 126 48 127 0 2 -36 3 -80 3 -74 0 -81
-2 -89 -22z"/>
<path d="M13561 7452 c-16 -29 -91 -222 -91 -232 0 -6 34 -10 79 -10 l80 0 19
53 c11 28 32 83 46 121 14 37 26 72 26 77 0 5 -34 9 -75 9 -61 0 -76 -3 -84
-18z"/>
<path d="M13797 7349 c-32 -67 -57 -125 -57 -130 0 -6 35 -9 81 -7 l81 3 54
119 c30 65 54 123 54 127 0 5 -35 9 -78 9 l-79 0 -56 -121z"/>
<path d="M14067 7349 c-32 -67 -57 -125 -57 -130 0 -6 35 -9 81 -7 l81 3 54
119 c30 65 54 123 54 127 0 5 -35 9 -78 9 l-79 0 -56 -121z"/>
<path d="M14339 7344 c-32 -69 -59 -128 -59 -130 0 -2 37 -4 83 -4 l83 0 55
121 c30 67 56 126 57 130 2 5 -33 9 -78 9 l-81 0 -60 -126z"/>
<path d="M14676 7448 c-19 -32 -110 -188 -125 -215 -12 -23 -12 -23 71 -23
l84 0 52 88 c28 48 63 106 77 130 l26 42 -85 0 c-78 0 -87 -2 -100 -22z"/>
<path d="M14929 7398 c-24 -40 -55 -95 -71 -121 -15 -26 -28 -52 -28 -57 0 -6
35 -10 79 -10 l78 0 73 123 c40 67 75 125 77 130 2 4 -34 7 -81 7 l-85 0 -42
-72z"/>
<path d="M15161 7346 c-39 -68 -71 -127 -71 -130 0 -3 36 -6 79 -6 l80 0 75
126 c42 69 76 127 76 130 0 2 -38 4 -84 4 l-83 0 -72 -124z"/>
<path d="M15483 7413 c-20 -32 -56 -89 -80 -126 -23 -37 -43 -70 -43 -72 0 -3
37 -5 83 -5 l82 1 65 101 c36 56 73 114 83 130 l19 28 -86 0 -86 0 -37 -57z"/>
<path d="M15708 7346 c-43 -68 -78 -126 -78 -130 0 -3 36 -6 80 -6 l79 0 77
117 c42 65 79 123 81 130 4 10 -15 13 -78 13 l-84 0 -77 -124z"/>
<path d="M15995 7368 c-38 -55 -78 -113 -88 -129 l-19 -29 84 0 83 1 85 116
c47 64 89 122 93 130 6 10 -10 13 -80 13 l-88 -1 -70 -101z"/>
<path d="M16275 7354 c-50 -64 -94 -123 -98 -130 -6 -11 8 -14 75 -14 l83 0
95 120 c52 66 96 124 98 130 2 6 -28 10 -80 10 l-84 0 -89 -116z"/>
<path d="M16545 7353 c-50 -64 -94 -123 -98 -130 -6 -10 9 -13 75 -13 l83 0
61 78 c34 42 81 101 104 130 l42 52 -89 0 -88 0 -90 -117z"/>
<path d="M16818 7358 c-52 -62 -100 -121 -107 -130 -13 -17 -8 -18 70 -18 l84
1 85 100 c47 56 95 114 108 130 l23 29 -85 0 -85 0 -93 -112z"/>
<path d="M17093 7350 c-59 -66 -109 -125 -111 -130 -2 -6 29 -10 76 -10 l79 0
85 93 c46 50 99 109 117 130 l33 37 -85 0 -85 0 -109 -120z"/>
<path d="M3250 6865 l0 -115 340 0 340 0 0 115 0 115 -340 0 -340 0 0 -115z"/>
<path d="M4120 6865 l0 -115 340 0 340 0 0 115 0 115 -340 0 -340 0 0 -115z"/>
<path d="M4990 6865 l0 -115 335 0 335 0 0 115 0 115 -335 0 -335 0 0 -115z"/>
<path d="M5850 6865 l0 -115 320 0 320 0 0 115 0 115 -320 0 -320 0 0 -115z"/>
<path d="M6680 6865 l0 -115 340 0 340 0 0 115 0 115 -340 0 -340 0 0 -115z"/>
<path d="M7510 6865 l0 -115 320 0 320 0 0 115 0 115 -320 0 -320 0 0 -115z"/>
<path d="M8330 6865 l0 -115 340 0 340 0 0 115 0 115 -340 0 -340 0 0 -115z"/>
<path d="M9200 6865 l0 -115 95 0 95 0 0 115 0 115 -95 0 -95 0 0 -115z"/>
<path d="M9540 6865 l0 -115 620 0 620 0 0 115 0 115 -620 0 -620 0 0 -115z"/>
<path d="M10930 6865 l0 -115 95 0 95 0 0 115 0 115 -95 0 -95 0 0 -115z"/>
<path d="M11310 6865 l0 -115 340 0 340 0 0 115 0 115 -340 0 -340 0 0 -115z"/>
<path d="M12170 6865 l0 -115 320 0 320 0 0 115 0 115 -320 0 -320 0 0 -115z"/>
<path d="M12960 6865 l0 -115 340 0 340 0 0 115 0 115 -340 0 -340 0 0 -115z"/>
<path d="M13830 6865 l0 -115 320 0 320 0 0 115 0 115 -320 0 -320 0 0 -115z"/>
<path d="M14660 6865 l0 -115 335 0 335 0 0 115 0 115 -335 0 -335 0 0 -115z"/>
<path d="M15520 6865 l0 -115 340 0 340 0 0 115 0 115 -340 0 -340 0 0 -115z"/>
<path d="M16390 6865 l0 -115 340 0 340 0 0 115 0 115 -340 0 -340 0 0 -115z"/>
<path d="M3520 6450 l0 -110 95 0 95 0 0 110 0 110 -95 0 -95 0 0 -110z"/>
<path d="M3740 6450 l0 -110 95 0 95 0 0 110 0 110 -95 0 -95 0 0 -110z"/>
<path d="M4120 6450 l0 -110 95 0 95 0 0 110 0 110 -95 0 -95 0 0 -110z"/>
<path d="M4370 6450 l0 -110 95 0 95 0 0 110 0 110 -95 0 -95 0 0 -110z"/>
<path d="M4610 6450 l0 -110 95 0 95 0 0 110 0 110 -95 0 -95 0 0 -110z"/>
<path d="M4990 6445 l0 -115 90 0 90 0 0 115 0 115 -90 0 -90 0 0 -115z"/>
<path d="M5230 6445 l0 -115 95 0 95 0 0 115 0 115 -95 0 -95 0 0 -115z"/>
<path d="M5480 6450 l0 -110 90 0 90 0 0 110 0 110 -90 0 -90 0 0 -110z"/>
<path d="M5850 6450 l0 -110 95 0 95 0 0 110 0 110 -95 0 -95 0 0 -110z"/>
<path d="M6080 6450 l0 -110 95 0 95 0 0 110 0 110 -95 0 -95 0 0 -110z"/>
<path d="M6310 6450 l0 -110 90 0 90 0 0 110 0 110 -90 0 -90 0 0 -110z"/>
<path d="M6680 6450 l0 -110 95 0 95 0 0 110 0 110 -95 0 -95 0 0 -110z"/>
<path d="M6930 6450 l0 -110 90 0 90 0 0 110 0 110 -90 0 -90 0 0 -110z"/>
<path d="M7170 6450 l0 -110 95 0 95 0 0 110 0 110 -95 0 -95 0 0 -110z"/>
<path d="M7510 6450 l0 -110 90 0 90 0 0 110 0 110 -90 0 -90 0 0 -110z"/>
<path d="M7730 6450 l0 -110 95 0 95 0 0 110 0 110 -95 0 -95 0 0 -110z"/>
<path d="M7960 6450 l0 -110 95 0 95 0 0 110 0 110 -95 0 -95 0 0 -110z"/>
<path d="M8330 6450 l0 -110 95 0 95 0 0 110 0 110 -95 0 -95 0 0 -110z"/>
<path d="M8580 6450 l0 -110 95 0 95 0 0 110 0 110 -95 0 -95 0 0 -110z"/>
<path d="M8830 6450 l0 -110 90 0 90 0 0 110 0 110 -90 0 -90 0 0 -110z"/>
<path d="M9200 6450 l0 -110 95 0 95 0 0 110 0 110 -95 0 -95 0 0 -110z"/>
<path d="M9540 6450 l0 -110 95 0 95 0 0 110 0 110 -95 0 -95 0 0 -110z"/>
<path d="M9800 6450 l0 -110 95 0 95 0 0 110 0 110 -95 0 -95 0 0 -110z"/>
<path d="M10070 6450 l0 -110 90 0 90 0 0 110 0 110 -90 0 -90 0 0 -110z"/>
<path d="M10330 6450 l0 -110 95 0 95 0 0 110 0 110 -95 0 -95 0 0 -110z"/>
<path d="M10590 6450 l0 -110 95 0 95 0 0 110 0 110 -95 0 -95 0 0 -110z"/>
<path d="M10930 6450 l0 -110 95 0 95 0 0 110 0 110 -95 0 -95 0 0 -110z"/>
<path d="M11310 6450 l0 -110 90 0 90 0 0 110 0 110 -90 0 -90 0 0 -110z"/>
<path d="M11550 6450 l0 -110 95 0 95 0 0 110 0 110 -95 0 -95 0 0 -110z"/>
<path d="M11800 6450 l0 -110 95 0 95 0 0 110 0 110 -95 0 -95 0 0 -110z"/>
<path d="M12170 6450 l0 -110 95 0 95 0 0 110 0 110 -95 0 -95 0 0 -110z"/>
<path d="M12400 6450 l0 -110 95 0 95 0 0 110 0 110 -95 0 -95 0 0 -110z"/>
<path d="M12630 6450 l0 -110 90 0 90 0 0 110 0 110 -90 0 -90 0 0 -110z"/>
<path d="M12960 6450 l0 -110 95 0 95 0 0 110 0 110 -95 0 -95 0 0 -110z"/>
<path d="M13210 6450 l0 -110 90 0 90 0 0 110 0 110 -90 0 -90 0 0 -110z"/>
<path d="M13450 6450 l0 -110 95 0 95 0 0 110 0 110 -95 0 -95 0 0 -110z"/>
<path d="M13830 6450 l0 -110 95 0 95 0 0 110 0 110 -95 0 -95 0 0 -110z"/>
<path d="M14060 6450 l0 -110 90 0 90 0 0 110 0 110 -90 0 -90 0 0 -110z"/>
<path d="M14280 6450 l0 -110 95 0 95 0 0 110 0 110 -95 0 -95 0 0 -110z"/>
<path d="M14660 6450 l0 -110 90 0 90 0 0 110 0 110 -90 0 -90 0 0 -110z"/>
<path d="M14900 6445 l0 -115 95 0 95 0 0 115 0 115 -95 0 -95 0 0 -115z"/>
<path d="M15150 6445 l0 -115 90 0 90 0 0 115 0 115 -90 0 -90 0 0 -115z"/>
<path d="M15520 6450 l0 -110 95 0 95 0 0 110 0 110 -95 0 -95 0 0 -110z"/>
<path d="M15760 6450 l0 -110 95 0 95 0 0 110 0 110 -95 0 -95 0 0 -110z"/>
<path d="M16010 6450 l0 -110 95 0 95 0 0 110 0 110 -95 0 -95 0 0 -110z"/>
<path d="M16390 6450 l0 -110 95 0 95 0 0 110 0 110 -95 0 -95 0 0 -110z"/>
<path d="M16610 6450 l0 -110 95 0 95 0 0 110 0 110 -95 0 -95 0 0 -110z"/>
<path d="M3520 6035 l0 -115 95 0 95 0 0 115 0 115 -95 0 -95 0 0 -115z"/>
<path d="M3740 6035 l0 -115 95 0 95 0 0 115 0 115 -95 0 -95 0 0 -115z"/>
<path d="M4120 6035 l0 -115 95 0 95 0 0 115 0 115 -95 0 -95 0 0 -115z"/>
<path d="M4370 6035 l0 -115 90 0 90 0 0 115 0 115 -90 0 -90 0 0 -115z"/>
<path d="M4610 6035 l0 -115 95 0 95 0 0 115 0 115 -95 0 -95 0 0 -115z"/>
<path d="M4990 6035 l0 -115 90 0 90 0 0 115 0 115 -90 0 -90 0 0 -115z"/>
<path d="M5230 6035 l0 -115 95 0 95 0 0 115 0 115 -95 0 -95 0 0 -115z"/>
<path d="M5480 6040 l0 -110 90 0 90 0 0 110 0 110 -90 0 -90 0 0 -110z"/>
<path d="M5850 6035 l0 -115 95 0 95 0 0 115 0 115 -95 0 -95 0 0 -115z"/>
<path d="M6080 6035 l0 -115 95 0 95 0 0 115 0 115 -95 0 -95 0 0 -115z"/>
<path d="M6310 6035 l0 -115 90 0 90 0 0 115 0 115 -90 0 -90 0 0 -115z"/>
<path d="M6680 6035 l0 -115 95 0 95 0 0 115 0 115 -95 0 -95 0 0 -115z"/>
<path d="M6930 6035 l0 -115 90 0 90 0 0 115 0 115 -90 0 -90 0 0 -115z"/>
<path d="M7170 6035 l0 -115 95 0 95 0 0 115 0 115 -95 0 -95 0 0 -115z"/>
<path d="M7510 6035 l0 -115 90 0 90 0 0 115 0 115 -90 0 -90 0 0 -115z"/>
<path d="M7730 6035 l0 -115 95 0 95 0 0 115 0 115 -95 0 -95 0 0 -115z"/>
<path d="M7960 6035 l0 -115 95 0 95 0 0 115 0 115 -95 0 -95 0 0 -115z"/>
<path d="M8330 6035 l0 -115 95 0 95 0 0 115 0 115 -95 0 -95 0 0 -115z"/>
<path d="M8580 6035 l0 -115 95 0 95 0 0 115 0 115 -95 0 -95 0 0 -115z"/>
<path d="M8830 6035 l0 -115 90 0 90 0 0 115 0 115 -90 0 -90 0 0 -115z"/>
<path d="M9200 6035 l0 -115 95 0 95 0 0 115 0 115 -95 0 -95 0 0 -115z"/>
<path d="M9540 6035 l0 -115 95 0 95 0 0 115 0 115 -95 0 -95 0 0 -115z"/>
<path d="M9800 6035 l0 -115 95 0 95 0 0 115 0 115 -95 0 -95 0 0 -115z"/>
<path d="M10070 6035 l0 -115 90 0 90 0 0 115 0 115 -90 0 -90 0 0 -115z"/>
<path d="M10330 6035 l0 -115 95 0 95 0 0 115 0 115 -95 0 -95 0 0 -115z"/>
<path d="M10590 6035 l0 -115 95 0 95 0 0 115 0 115 -95 0 -95 0 0 -115z"/>
<path d="M10930 6035 l0 -115 95 0 95 0 0 115 0 115 -95 0 -95 0 0 -115z"/>
<path d="M11310 6035 l0 -115 90 0 90 0 0 115 0 115 -90 0 -90 0 0 -115z"/>
<path d="M11550 6035 l0 -115 95 0 95 0 0 115 0 115 -95 0 -95 0 0 -115z"/>
<path d="M11800 6035 l0 -115 95 0 95 0 0 115 0 115 -95 0 -95 0 0 -115z"/>
<path d="M12170 6035 l0 -115 95 0 95 0 0 115 0 115 -95 0 -95 0 0 -115z"/>
<path d="M12400 6035 l0 -115 95 0 95 0 0 115 0 115 -95 0 -95 0 0 -115z"/>
<path d="M12630 6035 l0 -115 90 0 90 0 0 115 0 115 -90 0 -90 0 0 -115z"/>
<path d="M12960 6035 l0 -115 95 0 95 0 0 115 0 115 -95 0 -95 0 0 -115z"/>
<path d="M13210 6035 l0 -115 90 0 90 0 0 115 0 115 -90 0 -90 0 0 -115z"/>
<path d="M13450 6035 l0 -115 95 0 95 0 0 115 0 115 -95 0 -95 0 0 -115z"/>
<path d="M13830 6035 l0 -115 95 0 95 0 0 115 0 115 -95 0 -95 0 0 -115z"/>
<path d="M14050 6035 l0 -115 95 0 95 0 0 115 0 115 -95 0 -95 0 0 -115z"/>
<path d="M14280 6035 l0 -115 95 0 95 0 0 115 0 115 -95 0 -95 0 0 -115z"/>
<path d="M14660 6040 l0 -110 90 0 90 0 0 110 0 110 -90 0 -90 0 0 -110z"/>
<path d="M14900 6035 l0 -115 95 0 95 0 0 115 0 115 -95 0 -95 0 0 -115z"/>
<path d="M15150 6035 l0 -115 90 0 90 0 0 115 0 115 -90 0 -90 0 0 -115z"/>
<path d="M15520 6035 l0 -115 95 0 95 0 0 115 0 115 -95 0 -95 0 0 -115z"/>
<path d="M15770 6035 l0 -115 90 0 90 0 0 115 0 115 -90 0 -90 0 0 -115z"/>
<path d="M16010 6035 l0 -115 95 0 95 0 0 115 0 115 -95 0 -95 0 0 -115z"/>
<path d="M16390 6035 l0 -115 95 0 95 0 0 115 0 115 -95 0 -95 0 0 -115z"/>
<path d="M16610 6035 l0 -115 95 0 95 0 0 115 0 115 -95 0 -95 0 0 -115z"/>
<path d="M3520 5625 l0 -115 95 0 95 0 0 115 0 115 -95 0 -95 0 0 -115z"/>
<path d="M3740 5625 l0 -115 95 0 95 0 0 115 0 115 -95 0 -95 0 0 -115z"/>
<path d="M4120 5625 l0 -115 95 0 95 0 0 115 0 115 -95 0 -95 0 0 -115z"/>
<path d="M4370 5625 l0 -115 95 0 95 0 0 115 0 115 -95 0 -95 0 0 -115z"/>
<path d="M4610 5625 l0 -115 95 0 95 0 0 115 0 115 -95 0 -95 0 0 -115z"/>
<path d="M5480 5625 l0 -115 90 0 90 0 0 115 0 115 -90 0 -90 0 0 -115z"/>
<path d="M5850 5625 l0 -115 95 0 95 0 0 115 0 115 -95 0 -95 0 0 -115z"/>
<path d="M6080 5625 l0 -115 95 0 95 0 0 115 0 115 -95 0 -95 0 0 -115z"/>
<path d="M6310 5625 l0 -115 90 0 90 0 0 115 0 115 -90 0 -90 0 0 -115z"/>
<path d="M6680 5625 l0 -115 95 0 95 0 0 115 0 115 -95 0 -95 0 0 -115z"/>
<path d="M6930 5625 l0 -115 90 0 90 0 0 115 0 115 -90 0 -90 0 0 -115z"/>
<path d="M7170 5625 l0 -115 95 0 95 0 0 115 0 115 -95 0 -95 0 0 -115z"/>
<path d="M7510 5625 l0 -115 90 0 90 0 0 115 0 115 -90 0 -90 0 0 -115z"/>
<path d="M7730 5625 l0 -115 95 0 95 0 0 115 0 115 -95 0 -95 0 0 -115z"/>
<path d="M7960 5625 l0 -115 95 0 95 0 0 115 0 115 -95 0 -95 0 0 -115z"/>
<path d="M8330 5625 l0 -115 95 0 95 0 0 115 0 115 -95 0 -95 0 0 -115z"/>
<path d="M8580 5625 l0 -115 95 0 95 0 0 115 0 115 -95 0 -95 0 0 -115z"/>
<path d="M8830 5625 l0 -115 90 0 90 0 0 115 0 115 -90 0 -90 0 0 -115z"/>
<path d="M9200 5625 l0 -115 95 0 95 0 0 115 0 115 -95 0 -95 0 0 -115z"/>
<path d="M9540 5625 l0 -115 95 0 95 0 0 115 0 115 -95 0 -95 0 0 -115z"/>
<path d="M9800 5625 l0 -115 95 0 95 0 0 115 0 115 -95 0 -95 0 0 -115z"/>
<path d="M10070 5625 l0 -115 90 0 90 0 0 115 0 115 -90 0 -90 0 0 -115z"/>
<path d="M10330 5625 l0 -115 95 0 95 0 0 115 0 115 -95 0 -95 0 0 -115z"/>
<path d="M10590 5625 l0 -115 95 0 95 0 0 115 0 115 -95 0 -95 0 0 -115z"/>
<path d="M10930 5625 l0 -115 95 0 95 0 0 115 0 115 -95 0 -95 0 0 -115z"/>
<path d="M11310 5625 l0 -115 90 0 90 0 0 115 0 115 -90 0 -90 0 0 -115z"/>
<path d="M11550 5625 l0 -115 95 0 95 0 0 115 0 115 -95 0 -95 0 0 -115z"/>
<path d="M11800 5625 l0 -115 95 0 95 0 0 115 0 115 -95 0 -95 0 0 -115z"/>
<path d="M12170 5625 l0 -115 95 0 95 0 0 115 0 115 -95 0 -95 0 0 -115z"/>
<path d="M12400 5625 l0 -115 95 0 95 0 0 115 0 115 -95 0 -95 0 0 -115z"/>
<path d="M12630 5625 l0 -115 90 0 90 0 0 115 0 115 -90 0 -90 0 0 -115z"/>
<path d="M12960 5625 l0 -115 95 0 95 0 0 115 0 115 -95 0 -95 0 0 -115z"/>
<path d="M13210 5625 l0 -115 90 0 90 0 0 115 0 115 -90 0 -90 0 0 -115z"/>
<path d="M13450 5625 l0 -115 95 0 95 0 0 115 0 115 -95 0 -95 0 0 -115z"/>
<path d="M13830 5625 l0 -115 95 0 95 0 0 115 0 115 -95 0 -95 0 0 -115z"/>
<path d="M14050 5625 l0 -115 95 0 95 0 0 115 0 115 -95 0 -95 0 0 -115z"/>
<path d="M14280 5625 l0 -115 95 0 95 0 0 115 0 115 -95 0 -95 0 0 -115z"/>
<path d="M14660 5625 l0 -115 90 0 90 0 0 115 0 115 -90 0 -90 0 0 -115z"/>
<path d="M15520 5625 l0 -115 95 0 95 0 0 115 0 115 -95 0 -95 0 0 -115z"/>
<path d="M15760 5625 l0 -115 95 0 95 0 0 115 0 115 -95 0 -95 0 0 -115z"/>
<path d="M16010 5625 l0 -115 95 0 95 0 0 115 0 115 -95 0 -95 0 0 -115z"/>
<path d="M16390 5625 l0 -115 95 0 95 0 0 115 0 115 -95 0 -95 0 0 -115z"/>
<path d="M16610 5625 l0 -115 95 0 95 0 0 115 0 115 -95 0 -95 0 0 -115z"/>
<path d="M4990 5620 l0 -110 90 0 90 0 0 110 0 110 -90 0 -90 0 0 -110z"/>
<path d="M5230 5620 l0 -110 95 0 95 0 0 110 0 110 -95 0 -95 0 0 -110z"/>
<path d="M14900 5620 l0 -110 95 0 95 0 0 110 0 110 -95 0 -95 0 0 -110z"/>
<path d="M15150 5620 l0 -110 90 0 90 0 0 110 0 110 -90 0 -90 0 0 -110z"/>
<path d="M4120 5245 l0 -115 340 0 340 0 0 115 0 115 -340 0 -340 0 0 -115z"/>
<path d="M4990 5245 l0 -115 335 0 335 0 0 115 0 115 -335 0 -335 0 0 -115z"/>
<path d="M5850 5245 l0 -115 320 0 320 0 0 115 0 115 -320 0 -320 0 0 -115z"/>
<path d="M6680 5245 l0 -115 340 0 340 0 0 115 0 115 -340 0 -340 0 0 -115z"/>
<path d="M7510 5245 l0 -115 315 0 315 0 0 115 0 115 -315 0 -315 0 0 -115z"/>
<path d="M12180 5245 l0 -115 315 0 315 0 0 115 0 115 -315 0 -315 0 0 -115z"/>
<path d="M12960 5245 l0 -115 340 0 340 0 0 115 0 115 -340 0 -340 0 0 -115z"/>
<path d="M13830 5245 l0 -115 320 0 320 0 0 115 0 115 -320 0 -320 0 0 -115z"/>
<path d="M14660 5245 l0 -115 335 0 335 0 0 115 0 115 -335 0 -335 0 0 -115z"/>
<path d="M15520 5245 l0 -115 340 0 340 0 0 115 0 115 -340 0 -340 0 0 -115z"/>
</g>
</svg>
